<?xml version="1.0" encoding="utf-8" ?>
<svg baseProfile="full" height="200mm" version="1.1" viewBox="0,0,200,200" width="200mm" xmlns="http://www.w3.org/2000/svg" xmlns:ev="http://www.w3.org/2001/xml-events" xmlns:xlink="http://www.w3.org/1999/xlink"><defs /><rect fill="#1a1a1a" height="200" width="200" x="0" y="0" /><rect fill="#1a1a1a" height="200" width="180" x="10" y="0" /><text alignment-baseline="middle" fill="#e1ed5e" style="dominant-baseline: central; font-size:9.0px; font-family:Arial;" text-anchor="middle" x="100.0" y="100.0">2025</text><line stroke="#e1ed5e" stroke-width="0.3" x1="100.0" x2="100.0" y1="15.0" y2="10.0" /><path d="M 100.0 14.0 a86.0,86.0 0 0,1 42.46469731375804,11.215312516191453" fill="none" id="id1" stroke="none" /><text fill="#e1ed5e" style="font-size:6.75px; font-family:Arial;" text-anchor="middle"><textPath startOffset="22.20632615414155" xlink:href="#id1">January</textPath></text><line stroke="#e1ed5e" stroke-width="0.3" x1="143.23703022742887" x2="145.7803849466894" y1="26.81831364943548" y2="22.513508569990506" /><path d="M 143.74570117128098 25.957352633546492 a86.0,86.0 0 0,1 28.547481713284135,27.462654790039103" fill="none" id="id2" stroke="none" /><text fill="#e1ed5e" style="font-size:6.75px; font-family:Arial;" text-anchor="middle"><textPath startOffset="19.985693538727396" xlink:href="#id2">February</textPath></text><line stroke="#e1ed5e" stroke-width="0.3" x1="172.23445277983987" x2="176.4835382374775" y1="55.19839476539836" y2="52.563006222186495" /><path d="M 173.08426987136738 54.67131705675599 a86.0,86.0 0 0,1 12.851231095245387,41.99856678651699" fill="none" id="id3" stroke="none" /><text fill="#e1ed5e" style="font-size:6.75px; font-family:Arial;" text-anchor="middle"><textPath startOffset="22.20632615414155" xlink:href="#id3">March</textPath></text><line stroke="#e1ed5e" stroke-width="0.3" x1="184.98032266829074" x2="189.97916517819016" y1="98.17113171792111" y2="98.06355123074" /><path d="M 185.9800911702706 98.14961562048488 a86.0,86.0 0 0,1 -9.607161424134198,41.387399972396054" fill="none" id="id4" stroke="none" /><text fill="#e1ed5e" style="font-size:6.75px; font-family:Arial;" text-anchor="middle"><textPath startOffset="21.466115282336823" xlink:href="#id4">April</textPath></text><line stroke="#e1ed5e" stroke-width="0.3" x1="174.80103733775053" x2="179.2010983576182" y1="140.37084112569926" y2="142.7455964860345" /><path d="M 175.68104954172406 140.8457921977663 a86.0,86.0 0 0,1 -30.038265399797805,32.042727171017184" fill="none" id="id5" stroke="none" /><text fill="#e1ed5e" style="font-size:6.75px; font-family:Arial;" text-anchor="middle"><textPath startOffset="22.206326154141568" xlink:href="#id5">May</textPath></text><path d="M 116.0416608686014 113.55231037782055 l 15.684893042757478 13.250905906783473 a41.53295831372506,41.53295831372506 0 0,0 -0.46607393934828134,0.5421492863505546 l -15.454476593838418 -13.518932292295556" fill="#F5E1EE" stroke="none" /><path d="M 115.56566222782051 114.09645910891815 l 32.948698646905996 29.838755098902755 a65.4518621474615,65.4518621474615 0 0,0 -0.7634604160185491,0.8285854963246977 l -32.43019182289173 -30.40149185002879" fill="#F5E1EE" stroke="none" /><path d="M 114.81725581225074 114.88116024355365 l 20.013144389642157 20.099457849233357 a49.36395871865868,49.36395871865868 0 0,0 -0.6072943374230856,0.5943653276832025 l -19.664200099843278 -20.44097327983913" fill="#F5E1EE" stroke="none" /><path d="M 114.29624159901734 115.38237550388516 l 17.27115426953803 18.58330236793315 a46.369901393190545,46.369901393190545 0 0,0 -0.5893403606199833,0.5383484463012733 l -16.94871435945118 -18.877843580821008" fill="#F5E1EE" stroke="none" /><path d="M 113.48314897796784 116.09983520530334 l 11.81532309498762 14.108332930056054 a39.402361747999954,39.402361747999954 0 0,0 -0.5237321985597527,0.4309959439081329 l -11.570720767883175 -14.309623992821367" fill="#F5E1EE" stroke="none" /><path d="M 112.92097659922987 116.55440617244103 l 20.48723380619686 26.248324743329558 a54.29716655904917,54.29716655904917 0 0,0 -0.7417284385711899,0.5687257377732043 l -20.032376639132174 -26.597089822930133" fill="#F5E1EE" stroke="none" /><path d="M 112.04921762599082 117.19931262002967 l 17.874752146544953 25.514805999588084 a52.15304302146148,52.15304302146148 0 0,0 -0.7396868957099468,0.5087633916945125 l -17.432908366212125 -25.818710180647695" fill="#F5E1EE" stroke="none" /><path d="M 111.7513745106137 117.40417183066458 l 6.636619763376338 9.829051965986073 a32.85980541297757,32.85980541297757 0 0,0 -0.4714995602576964,0.31248419845361086 l -6.466445504378678 -9.941834185531002" fill="#F5E1EE" stroke="none" /><path d="M 111.45004920935366 117.60387380957326 l 34.35014762806101 52.81162142871978 a84.0,84.0 0 0,0 -1.2188727918122781,0.7779422847047739 l -33.4359930342018 -53.39507814224836" fill="#F5E1EE" stroke="none" /><line stroke="#e1ed5e" stroke-width="0.3" x1="143.8653032363475" x2="146.44561519142675" y1="172.8068346515853" y2="177.08958963109032" /><path d="M 144.38136562736335 173.6633856474863 a86.0,86.0 0 0,1 -40.68145358897372,12.25698825130547" fill="none" id="id6" stroke="none" /><text fill="#e1ed5e" style="font-size:6.75px; font-family:Arial;" text-anchor="middle"><textPath startOffset="21.466115282336833" xlink:href="#id6">June</textPath></text><path d="M 110.8373102113329 117.98757091392108 l 18.03850783444852 29.939988108318285 a55.95412211484793,55.95412211484793 0 0,0 -0.829272407168667,0.48994875526324383 l -17.52046755625147 -30.246055435875277" fill="#F5E1EE" stroke="none" /><path d="M 109.89434966115114 118.52300852407294 l 12.395569156065807 23.205490103108975 a47.30864697448918,47.30864697448918 0 0,0 -0.7215900007186316,0.3775017839264009 l -11.99428825282068 -23.415421305980093" fill="#F5E1EE" stroke="none" /><path d="M 108.92500713936063 119.00905698771935 l 11.395946920318083 24.27182421871653 a47.81397130443347,47.81397130443347 0 0,0 -0.748019991569744,0.34337929006591006 l -10.97645893298092 -24.464390579116518" fill="#F5E1EE" stroke="none" /><path d="M 108.2653958097858 119.30500536409082 l 16.88015236495834 39.42599234828854 a63.88762544734221,63.88762544734221 0 0,0 -1.014683165315472,0.4241376453951086 l -16.19899774014541 -39.71071503670362" fill="#F5E1EE" stroke="none" /><path d="M 107.59598834532513 119.57807347666477 l 8.926973581373241 23.008585157707987 a45.679664671182955,45.679664671182955 0 0,0 -0.735507377667227,0.27810595536919297 l -8.52959598294574 -23.158839363183812" fill="#F5E1EE" stroke="none" /><path d="M 106.57524785965236 119.94407469862006 l 7.707546515400012 23.378568645221204 a45.616330863603025,45.616330863603025 0 0,0 -0.7478442396003748,0.23943610937733 l -7.303980930708697 -23.50777760125824" fill="#F5E1EE" stroke="none" /><path d="M 105.53697534728816 120.25689768951611 l 9.164168548333382 33.52690106955062 a55.756799054425265,55.756799054425265 0 0,0 -0.9279778165600235,0.24508737561262864 l -8.585700288961862 -33.67967979446683" fill="#F5E1EE" stroke="none" /><path d="M 104.48393922423573 120.51570834832081 l 5.8921845912248 26.958960539578207 a48.59535092423363,48.59535092423363 0 0,0 -0.8187357186585535,0.1715740302631844 l -5.4272574111368685 -27.05639055056793" fill="#F5E1EE" stroke="none" /><path d="M 103.7750983002368 120.6578951692458 l 5.9505468649026545 32.562270849247085 a54.10151795388135,54.10151795388135 0 0,0 -0.9175386316284856,0.1595258521845542 l -5.389159261802119 -32.659875279952644" fill="#F5E1EE" stroke="none" /><path d="M 103.06178313531738 120.77559828337769 l 4.070923948310573 27.62308003356199 a48.92144287699867,48.92144287699867 0 0,0 -0.8341604748638053,0.1156070409285658 l -3.594834882259937 -27.68906163998316" fill="#F5E1EE" stroke="none" /><path d="M 102.34483914955558 120.86867818915974 l 3.6705413322022955 32.66720698358225 a53.87277423308855,53.87277423308855 0 0,0 -0.9224235021259164,0.09561296755750266 l -3.1076852334707765 -32.72554931959551" fill="#F5E1EE" stroke="none" /><path d="M 101.62511606390274 120.93702456842531 l 1.4758981153106292 19.014589657394936 a40.071782692918035,40.071782692918035 0 0,0 -0.6881608133828857,0.04745959875031163 l -1.148374541148813 -19.037177600661533" fill="#F5E1EE" stroke="none" /><line stroke="#e1ed5e" stroke-width="0.3" x1="102.19456741930631" x2="102.32365962044197" y1="184.97166512339345" y2="189.96999836594603" /><path d="M 102.22038585953345 185.97133177190398 a86.0,86.0 0 0,1 -42.740103519485714,-10.115201625700543" fill="none" id="id7" stroke="none" /><text fill="#e1ed5e" style="font-size:6.75px; font-family:Arial;" text-anchor="middle"><textPath startOffset="22.20632615414155" xlink:href="#id7">July</textPath></text><path d="M 100.54218724476979 120.99299961872073 l 0.5945469160933659 23.02031872431639 a44.02799514079651,44.02799514079651 0 0,0 -0.7577853436711238,0.013045961910316876 l -0.19820188252957405 -23.027142163505864" fill="#F5E1EE" stroke="none" /><path d="M 99.81925306533755 120.99922214144158 l -0.21202302042025375 24.632885272545217 a45.63379773018288,45.63379773018288 0 0,0 -0.7854235239510745,-0.013521778248299775 l 0.6360062342639962 -24.625586017017756" fill="#F5E1EE" stroke="none" /><path d="M 99.09653310690486 120.98055641714683 l -1.0605510368126843 24.628407561104744 a45.65123176430674,45.65123176430674 0 0,0 -0.7847923504064699,-0.040564800298355755 l 1.484331455632643 -24.606502954044185" fill="#F5E1EE" stroke="none" /><path d="M 98.73552117531835 120.96189622390904 l -1.9786934480567369 32.80178830004256 a53.86141420332046,53.86141420332046 0 0,0 -0.9249729389918102,-0.06379154942526911 l 2.543029147827477 -32.762868406101006" fill="#F5E1EE" stroke="none" /><path d="M 98.01472825383883 120.90594882070398 l -2.7961866790349434 29.44530677881962 a50.57777461613387,50.57777461613387 0 0,0 -0.8660056708662281,-0.08976502866883347 l 3.302624946506765 -29.392812381695027" fill="#F5E1EE" stroke="none" /><path d="M 97.65516085044442 120.86867818915974 l -2.3652919835677726 21.050705007987624 a42.18317227189651,42.18317227189651 0 0,0 -0.7208754160515561,-0.0872879737029904 l 2.727294822670718 -21.006871505559285" fill="#F5E1EE" stroke="none" /><path d="M 96.93821686468263 120.77559828337769 l -3.836114687129012 26.029791852157608 a47.31094524640758,47.31094524640758 0 0,0 -0.8046558524189473,-0.12567069556442928 l 4.283606403156477 -25.959902849246074" fill="#F5E1EE" stroke="none" /><path d="M 96.22490169976321 120.6578951692458 l -5.913640542667114 32.3603140059575 a53.89621660665623,53.89621660665623 0 0,0 -0.911185826067704,-0.17463093220641468 l 6.469793983306513 -32.253725875402615" fill="#F5E1EE" stroke="none" /><path d="M 95.51606077576429 120.51570834832081 l -5.306611548451621 24.279743636449766 a45.852888708918385,45.852888708918385 0 0,0 -0.7696294934297737,-0.17516516700610663 l 5.723761191274257 -24.18480173586597" fill="#F5E1EE" stroke="none" /><path d="M 94.81253420990036 120.34920634021253 l -6.096448911648514 23.914933006877106 a45.67976316855088,45.67976316855088 0 0,0 -0.7602625617864885,-0.20079225248670857 l 6.507201916246491 -23.806449405086816" fill="#F5E1EE" stroke="none" /><path d="M 94.11515582081647 120.15858648285463 l -6.912548846505742 23.678998032293876 a45.66735250019153,45.66735250019153 0 0,0 -0.7526958833988141,-0.22678109520958065 l 7.319119704344802 -23.55650156797857" fill="#F5E1EE" stroke="none" /><path d="M 93.76903079525671 120.05430185196036 l -7.34470169891909 23.63883691972087 a45.75357052958751,45.75357052958751 0 0,0 -0.7500941771053895,-0.2401564683157511 l 7.75051722111542 -23.508907604745414" fill="#F5E1EE" stroke="none" /><path d="M 93.08242187328487 119.8279376855182 l -7.793097441601584 22.3374492660227 a44.657852976262134,44.657852976262134 0 0,0 -0.7236282777188356,-0.2594673549290373 l 8.176445279950146 -22.1999943700537" fill="#F5E1EE" stroke="none" /><path d="M 92.7421414339146 119.70592522655815 l -8.523661344501328 23.14272613359037 a45.6624932967069,45.6624932967069 0 0,0 -0.735230894188122,-0.27800141297514797 l 8.920762459449733 -22.992576470508585" fill="#F5E1EE" stroke="none" /><path d="M 91.40352486487194 119.15986991738527 l -9.427560961444014 21.012198467412453 a44.03022774780296,44.03022774780296 0 0,0 -0.6888256651810803,-0.3162060781192426 l 9.787854622392514 -20.846805318959138" fill="#F5E1EE" stroke="none" /><path d="M 90.7491055286396 118.85261126421891 l -10.453012780750191 21.30243590017038 a44.72886957854071,44.72886957854071 0 0,0 -0.6882837818129944,-0.34511977673796124 l 10.818150470245946 -21.11934828252312" fill="#F5E1EE" stroke="none" /><path d="M 90.42595943632237 118.69057910512821 l -11.245906336214816 21.954419410266773 a45.66712267299968,45.66712267299968 0 0,0 -0.696552135600016,-0.36440315625892644 l 11.622149374341328 -21.75758683506313" fill="#F5E1EE" stroke="none" /><line stroke="#e1ed5e" stroke-width="0.3" x1="58.666819895761336" x2="56.23545636021788" y1="174.27360380694188" y2="178.64263932499728" /><path d="M 58.180547188652646 175.14741091055294 a86.0,86.0 0 0,1 -31.652253787137756,-30.449443065178592" fill="none" id="id8" stroke="none" /><text fill="#e1ed5e" style="font-size:6.75px; font-family:Arial;" text-anchor="middle"><textPath startOffset="22.20632615414155" xlink:href="#id8">August</textPath></text><path d="M 89.7882731507175 118.34994917583269 l -12.017252360348605 21.594385876179842 a45.71298961399975,45.71298961399975 0 0,0 -0.6842826025180414,-0.3885535203886558 l 12.387183729787854 -21.384329189996553" fill="#F5E1EE" stroke="none" /><path d="M 89.1626897886671 117.98757091392108 l -16.988801247909652 28.197704156306596 a53.92005296969564,53.92005296969564 0 0,0 -0.7908808502579974,-0.48582361386148454 l 17.471661298099956 -27.90109207561673" fill="#F5E1EE" stroke="none" /><path d="M 88.8546689885994 117.79835938074946 l -9.307585357999757 14.863600641311356 a38.53732503037002,38.53732503037002 0 0,0 -0.5591916303422068,-0.3569025557206772 l 9.562058790388887 -14.701183656766876" fill="#F5E1EE" stroke="none" /><path d="M 88.24862548938628 117.40417183066458 l -14.73280275170062 21.819765033128405 a47.32788679369179,47.32788679369179 0 0,0 -0.6712516784213438,-0.46169302521778305 l 15.106211314744856 -21.56293121854552" fill="#F5E1EE" stroke="none" /><path d="M 87.65650970185807 116.9893568818739 l -15.548747806421336 21.40101536672415 a47.45310978078864,47.45310978078864 0 0,0 -0.6566946144130955,-0.48580697639186265 l 15.914827391252995 -21.130198441592515" fill="#F5E1EE" stroke="none" /><path d="M 87.36589467227662 116.77436683061367 l -12.706321548329578 16.870248679319715 a42.12003545905246,42.12003545905246 0 0,0 -0.575382291811324,-0.4411786058013252 l 12.99483256863439 -16.649030731691024" fill="#F5E1EE" stroke="none" /><path d="M 87.07902340077011 116.55440617244103 l -24.303179428908365 31.137329323221742 a60.49908616330863,60.49908616330863 0 0,0 -0.8154196683795936,-0.6478187005623605 l 24.835556590005318 -30.714376708654253" fill="#F5E1EE" stroke="none" /><path d="M 86.24171649860922 115.8653595955263 l -10.96657875281 12.646106284145183 a37.738872533461745,37.738872533461745 0 0,0 -0.48711476156563543,-0.4298221412194973 l 11.182635867282222 -12.455461001153397" fill="#F5E1EE" stroke="none" /><path d="M 85.97065885151581 115.62618273729859 l -11.041971987540895 12.298786538246572 a37.52831799328029,37.52831799328029 0 0,0 -0.47696785619797943,-0.43569882783813335 l 11.252039393205733 -12.106894943821862" fill="#F5E1EE" stroke="none" /><path d="M 85.44109423537348 115.13401014063109 l -19.420508785722507 20.187655696862002 a49.01245444496733,49.01245444496733 0 0,0 -0.6029699971445964,-0.5901330505677199 l 19.7651287352429 -19.850372543371712" fill="#F5E1EE" stroke="none" /><path d="M 85.18274418774928 114.88116024355367 l -27.869838312913313 27.99003642452444 a60.4989876659407,60.4989876659407 0 0,0 -0.7316326234483478,-0.741139984838567 l 28.347511561417196 -27.506155945705213" fill="#F5E1EE" stroke="none" /><path d="M 84.9287848128048 114.62390073753433 l -15.213135712440186 14.761609054217699 a42.197749882350365,42.197749882350365 0 0,0 -0.5013362924855135,-0.5256490983549761 l 15.464978556304658 -14.497552839280221" fill="#F5E1EE" stroke="none" /><path d="M 84.43433777217949 114.09645910891817 l -24.95449599735964 22.599104828429574 a54.66669585107198,54.66669585107198 0 0,0 -0.6256503127033834,-0.7029247587956781 l 25.33980515971136 -22.16620589989303" fill="#F5E1EE" stroke="none" /><path d="M 84.19399662182784 113.82643327865904 l -17.441881766174 15.257431541948234 a44.17344292077528,44.17344292077528 0 0,0 -0.49570489058706435,-0.5766167768316897 l 17.70192916633184 -14.954937665955015" fill="#F5E1EE" stroke="none" /><path d="M 83.95833913139862 113.55231037782056 l -10.161775973944094 8.584868058040247 a34.302693355805324,34.302693355805324 0 0,0 -0.3771728147752791,-0.4543289527426586 l 10.308044788612909 -8.408677848183826" fill="#F5E1EE" stroke="none" /><path d="M 83.72743513129214 113.27417163493432 l -17.838098105622066 14.55123871407412 a44.02034517855384,44.02034517855384 0 0,0 -0.47391483571586607,-0.5912816252927379 l 18.085930853392792 -14.242029255203123" fill="#F5E1EE" stroke="none" /><path d="M 83.50135304334701 112.99209946851258 l -16.397660258745514 12.912576024701849 a41.87146093484946,41.87146093484946 0 0,0 -0.44103246247184114,-0.5700939095190828 l 16.617499538435425 -12.628404121069513" fill="#F5E1EE" stroke="none" /><path d="M 83.28015986056508 112.70617746262583 l -19.059819423846097 14.484435615732883 a44.938997296794454,44.938997296794454 0 0,0 -0.462740564354849,-0.6199166059355944 l 19.30632125489603 -14.154206130287983" fill="#F5E1EE" stroke="none" /><path d="M 82.85270091963577 112.12312394758628 l -21.32161339110496 15.074360148000078 a47.112210390377896,47.112210390377896 0 0,0 -0.46246039578377623,-0.6662086920526972 l 21.57793469405087 -14.70511019376037" fill="#F5E1EE" stroke="none" /><path d="M 82.64656182679789 111.8261652097733 l -30.147580350472417 20.54522350793693 a57.48263710286408,57.48263710286408 0 0,0 -0.5501824547846418,-0.8224481201673038 l 30.496765910667794 -20.023238473563804" fill="#F5E1EE" stroke="none" /><path d="M 82.44556493220864 111.52570212397912 l -18.779299684942195 12.329910557059634 a43.46527967780416,43.46527967780416 0 0,0 -0.40525192251764697,-0.6289599832122817 l 18.988756470836886 -12.004828973925905" fill="#F5E1EE" stroke="none" /><path d="M 82.24976979558568 111.22182372390057 l -14.779254650892291 9.343551523163088 a38.48508859291038,38.48508859291038 0 0,0 -0.3491795344028962,-0.5629885906416615 l 14.937898824963144 -9.087766601156162" fill="#F5E1EE" stroke="none" /><path d="M 82.05923443525364 110.91462005526583 l -38.681431723248906 23.532615089881038 a66.27733575563897,66.27733575563897 0 0,0 -0.584563337605415,-0.9797617778470353 l 39.08077593655255 -22.86329121814789" fill="#F5E1EE" stroke="none" /><line stroke="#e1ed5e" stroke-width="0.3" x1="26.63291911575756" x2="22.317208475507996" y1="142.92168965132927" y2="145.44649492493687" /><path d="M 25.769776987707644 143.4266507060508 a86.0,86.0 0 0,1 -11.730757126820373,-40.83630448921669" fill="none" id="id9" stroke="none" /><text fill="#e1ed5e" style="font-size:6.75px; font-family:Arial;" text-anchor="middle"><textPath startOffset="21.46611528233685" xlink:href="#id9">September</textPath></text><path d="M 81.87401531095188 110.60418214915194 l -18.76239531701099 10.976499258337842 a42.73731846387882,42.73731846387882 0 0,0 -0.3660105435966123,-0.638170233881226 l 18.948557856759976 -10.65190917859831" fill="#F5E1EE" stroke="none" /><path d="M 81.69416730710424 110.29060199501025 l -26.15596914458843 14.703546829922997 a51.005483020148176,51.005483020148176 0 0,0 -0.4236456898111348,-0.7690399832161039 l 26.405191243851085 -14.25113632830907" fill="#F5E1EE" stroke="none" /><path d="M 81.51974371655577 109.97397251340807 l -11.700551655703462 6.314900552014834 a34.29589703741806,34.29589703741806 0 0,0 -0.27591456107854007,-0.5219263684433819 l 11.807518725006888 -6.112559168485325" fill="#F5E1EE" stroke="none" /><path d="M 81.35079622478065 109.6543875284942 l -14.834667467525106 7.67966452155668 a37.704628281877575,37.704628281877575 0 0,0 -0.2934162147161325,-0.5789380280384385 l 14.964662352027506 -7.423172281815556" fill="#F5E1EE" stroke="none" /><path d="M 81.18737489456691 109.33194174019688 l -13.817982569534065 6.854365490369951 a36.42462215315246,36.42462215315246 0 0,0 -0.2737860945673562,-0.5640804475712748 l 13.93392192071614 -6.615496086833392" fill="#F5E1EE" stroke="none" /><path d="M 81.02952815118164 109.00673069616217 l -26.850378480808843 12.74792372029146 a50.72292690400884,50.72292690400884 0 0,0 -0.3676817610937242,-0.791953802890828 l 27.065834858742395 -12.283849850121806" fill="#F5E1EE" stroke="none" /><path d="M 80.87730276802145 108.67885076344099 l -24.08572317415731 10.93132388293508 a47.450253357118626,47.450253357118626 0 0,0 -0.3311551267259643,-0.7466673883668045 l 24.270319385614552 -10.515108158075579" fill="#F5E1EE" stroke="none" /><path d="M 80.58989483394504 108.01547362559985 l -21.25891926873856 8.778948143224495 a44.00025171549582,44.00025171549582 0 0,0 -0.28306280851335114,-0.7025386769181636 l 21.406884691509298 -8.411710098463526" fill="#F5E1EE" stroke="none" /><path d="M 80.45479744820244 107.68017299344265 l -19.452061912599866 7.643573924189601 a41.89992667418165,41.89992667418165 0 0,0 -0.2579952477897193,-0.6735441807915461 l 19.580751439983096 -7.307606176564898" fill="#F5E1EE" stroke="none" /><path d="M 80.32549172779595 107.34259656027581 l -38.238883973917844 14.270887691376146 a61.8150766637847,61.8150766637847 0 0,0 -0.3634601081942699,-1.000086117845553 l 38.47886834311734 -13.610553776524476" fill="#F5E1EE" stroke="none" /><path d="M 80.20201598880116 107.00284435728193 l -13.292526635359966 4.701766356099489 a35.09956989482669,35.09956989482669 0 0,0 -0.1965729166466972,-0.5713329095179477 l 13.371490382949892 -4.472260743492244" fill="#F5E1EE" stroke="none" /><path d="M 80.0844068197444 106.66101706037122 l -29.929856792108158 10.010411686072677 a52.559541658914554,52.559541658914554 0 0,0 -0.2795860993492864,-0.8604775351903472 l 30.097735142473695 -9.493735250904527" fill="#F5E1EE" stroke="none" /><path d="M 79.97269907076064 106.31721596034903 l -26.572696468478355 8.381831522544427 a48.86329659746315,48.86329659746315 0 0,0 -0.24611564700494742,-0.8043201745682051 l 26.713038887989434 -7.923184375424174" fill="#F5E1EE" stroke="none" /><path d="M 79.86692584326677 105.97154293290107 l -21.72496353844878 6.443703106421553 a43.66043579613233,43.66043579613233 0 0,0 -0.2075063318674057,-0.722356763503701 l 21.83266250720229 -6.0687888674132555" fill="#F5E1EE" stroke="none" /><path d="M 79.76711848015287 105.62410040840567 l -19.152864070412043 5.323889755143321 a40.879034288028194,40.879034288028194 0 0,0 -0.1826162306595506,-0.6795829291894605 l 19.241668377413365 -4.993415892778321" fill="#F5E1EE" stroke="none" /><path d="M 79.58551787078972 104.9243191809786 l -31.986511265137057 7.715688791836903 a53.90393223381086,53.90393223381086 0 0,0 -0.2098131864242574,-0.9038697157944422 l 32.11458501749187 -7.1639504186938865" fill="#F5E1EE" stroke="none" /><path d="M 79.50377843672027 104.57218783832718 l -12.170527806852835 2.714936460494185 a33.469668282753105,33.469668282753105 0 0,0 -0.1205959344851719,-0.5633840574608743 l 12.215457780062447 -2.505038583617147" fill="#F5E1EE" stroke="none" /><path d="M 79.4281124754447 104.21870165774334 l -32.2747937700267 6.618630683179347 a53.94645026430127,53.94645026430127 0 0,0 -0.17871705526725312,-0.9112744145081988 l 32.38394075826962 -6.062092541603194" fill="#F5E1EE" stroke="none" /><path d="M 79.35854240842038 103.8639653848113 l -33.825687566726344 6.331979478454568 a55.41324023508038,55.41324023508038 0 0,0 -0.16743653497281244,-0.9390730076562359 l 33.92967054403835 -5.748787720065118" fill="#F5E1EE" stroke="none" /><path d="M 79.29508885075956 103.50808413554451 l -19.762879790564547 3.348473440249274 a41.044542698609,41.044542698609 0 0,0 -0.11202862764416002,-0.6976023712798717 l 19.817590172569997 -3.007791839276189" fill="#F5E1EE" stroke="none" /><path d="M 79.23777060512086 103.15116336523772 l -28.47836820857768 4.322271413818131 a49.80450461296006,49.80450461296006 0 0,0 -0.12134736867477493,-0.848703213881942 l 28.548549628269054 -3.8314227279557875" fill="#F5E1EE" stroke="none" /><path d="M 79.18660465613746 102.79330883721812 l -27.828846770093996 3.734833376689544 a49.07834918411346,49.07834918411346 0 0,0 -0.10516436390196612,-0.838263452439264 l 27.889012643242808 -3.255252169962872" fill="#F5E1EE" stroke="none" /><path d="M 79.04373962182676 101.35467743843564 l -29.575996063756673 1.911883793377693 a50.637726680748145,50.637726680748145 0 0,0 -0.048741582808462885,-0.8703137037884593 l 29.604523997452667 -1.4024983732537961" fill="#F5E1EE" stroke="none" /><path d="M 79.0235259727143 100.99374915477108 l -10.445586239230774 0.49485401992830413 a31.45730139100172,31.45730139100172 0 0,0 -0.020968339320522684,-0.5410996671413367 l 10.452556711402497 -0.31497710577297067" fill="#F5E1EE" stroke="none" /><path d="M 79.0095281055655 100.63252640178507 l -29.882849021162393 0.9004890915031875 a50.8964136013921,50.8964136013921 0 0,0 -0.018850910216645794,-0.8759277245381386 l 29.893921994064044 -0.38597155117491994" fill="#F5E1EE" stroke="none" /><line stroke="#e1ed5e" stroke-width="0.3" x1="15.007084014347285" x2="10.007500721073583" y1="101.09737516637583" y2="101.16192664675087" /><path d="M 14.007167355692545 101.11028546245083 a86.0,86.0 0 0,1 10.666146001902534,-42.60595125391555" fill="none" id="id10" stroke="none" /><text fill="#e1ed5e" style="font-size:6.75px; font-family:Arial;" text-anchor="middle"><textPath startOffset="22.20632615414155" xlink:href="#id10">October</textPath></text><path d="M 79.00175016825051 100.2711162175752 l -30.356919530656064 0.39194948466334184 a51.359449728037816,51.359449728037816 0 0,0 -0.0038047635786448647,-0.8840930610171663 l 30.359168591524213 0.13065305455749981" fill="#F5E1EE" stroke="none" /><path d="M 79.00019446554 99.90962569577889 l -27.4427541990028 -0.11810203730583642 a48.44300832849966,48.44300832849966 0 0,0 0.010765865479312103,-0.8338281457727241 l 27.436655326405774 0.5904664411390326" fill="#F5E1EE" stroke="none" /><path d="M 79.00486145842228 99.54816195383935 l -36.78855508408836 -0.7917294195201223 a57.797073533757235,57.797073533757235 0 0,0 0.029967247438338042,-0.9944670504390123 l 36.76947614219438 1.4248666173841291" fill="#F5E1EE" stroke="none" /><path d="M 79.01574976396665 99.18683210126434 l -21.82993772160541 -0.8459394253756098 a42.84632221772296,42.84632221772296 0 0,0 0.0349021892195292,-0.7367300511843601 l 21.812141924152385 1.221580583182979" fill="#F5E1EE" stroke="none" /><path d="M 79.03285615573316 98.82574320788736 l -31.2074964913213 -1.747763786615398 a52.25639959287754,52.25639959287754 0 0,0 0.058028016892529906,-0.8976677375191989 l 31.17278788342436 2.2846905883876087" fill="#F5E1EE" stroke="none" /><path d="M 79.05617556472873 98.46500227214037 l -40.24851826837838 -2.9498616302203335 a61.35647291869589,61.35647291869589 0 0,0 0.08626578733045451,-1.0526611086582844 l 40.191777997228435 3.6422366560863964" fill="#F5E1EE" stroke="none" /><path d="M 79.08570108090925 98.10471618934814 l -35.84974861770547 -3.2487557165521173 a56.99665108949033,56.99665108949033 0 0,0 0.09695639063827272,-0.9763376221329363 l 35.78851510138497 3.8653688693894837" fill="#F5E1EE" stroke="none" /><path d="M 79.12142395522702 97.74499172005258 l -31.770470254590286 -3.4313965343369475 a52.95523841835116,52.95523841835116 0 0,0 0.10568263565351826,-0.9054242829813727 l 31.70669726593318 3.9777645556431818" fill="#F5E1EE" stroke="none" /><path d="M 79.16333360222342 97.38593545837743 l -34.20154870335517 -4.290756209618927 a55.46964639444912,55.46964639444912 0 0,0 0.12700964426153877,-0.9463693750138247 l 34.1226230600358 4.878843926697411" fill="#F5E1EE" stroke="none" /><path d="M 79.21141760316559 97.0276538004421 l -11.465895589077826 -1.6393908217576603 a32.58250248979458,32.58250248979458 0 0,0 0.08416232081288656,-0.554524538587593 l 11.435977374825637 1.8365144727373452" fill="#F5E1EE" stroke="none" /><path d="M 79.26566170972629 96.67025291283419 l -26.481664459613363 -4.252715657632686 a47.82096461755661,47.82096461755661 0 0,0 0.13751519207435828,-0.8116224479115773 l 26.40453740601878 4.707923893860092" fill="#F5E1EE" stroke="none" /><path d="M 79.32604984820605 96.31383870115002 l -19.289601522625293 -3.439332206998144 a40.593818742954696,40.593818742954696 0 0,0 0.12857468892485346,-0.6868511294705959 l 19.22754110979058 3.7708614139313124" fill="#F5E1EE" stroke="none" /><path d="M 79.46518482838121 95.60439243477599 l -25.732159423136526 -5.508132100756211 a47.3150821358607,47.3150821358607 0 0,0 0.17733154969294557,-0.7949425660508761 l 25.633533486441543 5.950252836357047" fill="#F5E1EE" stroke="none" /><path d="M 79.71946130924805 94.55025226153421 l -25.5579222553718 -6.867876200675642 a47.46460114038064,47.46460114038064 0 0,0 0.21881911048475453,-0.7872087649963306 l 25.435916374320687 7.306796269090916" fill="#F5E1EE" stroke="none" /><path d="M 79.81627453868168 94.20196356495316 l -18.57580823169591 -5.33614139491874 a40.327055038140365,40.327055038140365 0 0,0 0.1973992116558313,-0.6655320092987796 l 18.481203122928374 5.655102790964059" fill="#F5E1EE" stroke="none" /><path d="M 79.91906864156998 93.8553929516997 l -33.30002256928625 -10.189544983524753 a55.82410558917842,55.82410558917842 0 0,0 0.2890745407794245,-0.9164452910125489 l 33.11969254473862 10.761240440963718" fill="#F5E1EE" stroke="none" /><path d="M 80.02781315780177 93.51064311812611 l -17.24201462133154 -5.602270153206369 a39.12932704409398,39.12932704409398 0 0,0 0.21365116817929478,-0.6387897988221145 l 17.143026159380472 5.898233054950806" fill="#F5E1EE" stroke="none" /><path d="M 80.14247586403 93.16781622104843 l -32.66922561948116 -11.240180388048424 a55.548805445810025,55.548805445810025 0 0,0 0.31886844577084156,-0.9014840354808785 l 32.470904092900504 11.800862049955914" fill="#F5E1EE" stroke="none" /><path d="M 80.2630227832202 92.82701384747504 l -20.0649954463199 -7.292197427505127 a42.34900900703709,42.34900900703709 0 0,0 0.2548914485710825,-0.6829823581152137 l 19.936499409247194 7.636502922649682" fill="#F5E1EE" stroke="none" /><path d="M 80.52162464483688 92.15188598940014 l -29.897817452221457 -12.046255180668325 a53.23339498538955,53.23339498538955 0 0,0 0.34976447816212786,-0.8469824269391347 l 29.68603128717313 12.55911217806077" fill="#F5E1EE" stroke="none" /><path d="M 80.95270993114464 91.15688171328213 l -24.86176548162043 -11.542614837902814 a48.41056986199425,48.41056986199425 0 0,0 0.3574124851692218,-0.752801845314195 l 24.65939480260946 11.968859098857543" fill="#F5E1EE" stroke="none" /><path d="M 81.10775173730289 90.83032412892265 l -23.01695532471502 -11.171673002172014 a46.58488831492892,46.58488831492892 0 0,0 0.3563521835941378,-0.7183842572207857 l 22.82124312816747 11.566216847891761" fill="#F5E1EE" stroke="none" /><path d="M 81.43458229118936 90.18545643968196 l -34.310310489812736 -18.138026418360443 a59.80960458778851,59.80960458778851 0 0,0 0.4889916522223342,-0.9060272666067101 l 33.99301073837193 18.725934668299626" fill="#F5E1EE" stroke="none" /><line stroke="#e1ed5e" stroke-width="0.3" x1="26.266209847984257" x2="21.92892807433627" y1="57.711370442889674" y2="55.22380399835377" /><path d="M 25.39875349325466 57.213857153982495 a86.0,86.0 0 0,1 29.58750427330802,-30.492523968695096" fill="none" id="id11" stroke="none" /><text fill="#e1ed5e" style="font-size:6.75px; font-family:Arial;" text-anchor="middle"><textPath startOffset="21.46611528233685" xlink:href="#id11">November</textPath></text><path d="M 81.78341655067847 89.55222093294921 l -25.753209219557455 -14.770269130982008 a50.68819016558502,50.68819016558502 0 0,0 0.4406018444445696,-0.7531313753420723 l 25.49514770064256 15.211379918677972" fill="#F5E1EE" stroke="none" /><path d="M 81.96595687620814 89.24020034530311 l -31.136356516681964 -18.57714078850844 a57.257176627669004,57.257176627669004 0 0,0 0.512272329670216,-0.8420410170380415 l 30.81196838872553 19.110349578753556" fill="#F5E1EE" stroke="none" /><path d="M 82.34701348167596 88.62581576622439 l -20.740522456290073 -13.363547481199806 a45.67293401770763,45.67293401770763 0 0,0 0.43150779915185217,-0.6572159821567222 l 20.5074180217803 13.718581527334194" fill="#F5E1EE" stroke="none" /><path d="M 82.54541684631803 88.32363383020206 l -26.315961064756742 -17.604247251096748 a52.66132227244371,52.66132227244371 0 0,0 0.510502705723971,-0.7490997279246698 l 26.00903389336403 18.054625002291832" fill="#F5E1EE" stroke="none" /><path d="M 82.95767976084542 87.72973835380427 l -24.23016022207473 -17.44541831639996 a50.8570474866755,50.8570474866755 0 0,0 0.5176215459558203,-0.706035206968944 l 23.92627606360528 17.859915967040404" fill="#F5E1EE" stroke="none" /><path d="M 83.17141714833178 87.43820079747576 l -26.449046682230275 -19.743053615915784 a54.00515469558841,54.00515469558841 0 0,0 0.5624869849449525,-0.7401669382043147 l 26.105283757061212 20.195405330001126" fill="#F5E1EE" stroke="none" /><path d="M 83.39014120810768 87.1503855733568 l -26.10242720133107 -20.19319545933453 a54.00154312543092,54.00154312543092 0 0,0 0.5751059410300629,-0.730326142185471 l 25.75096717970704 20.63951399547305" fill="#F5E1EE" stroke="none" /><path d="M 83.84228863543731 86.58626213691792 l -24.69088750105132 -20.497772554121624 a53.09047530452103,53.09047530452103 0 0,0 0.589783067308033,-0.698117124537139 l 24.334393820256164 20.919748628287877" fill="#F5E1EE" stroke="none" /><path d="M 84.07557802195018 86.31012108654704 l -26.93327155715989 -23.153947243353578 a56.517691221695685,56.517691221695685 0 0,0 0.6405557315504125,-0.7322659324166193 l 26.530723962031633 23.61412873197314" fill="#F5E1EE" stroke="none" /><path d="M 84.5562425177563 85.77008943001954 l -25.678113192482108 -23.65986740953214 a55.916397622930184,55.916397622930184 0 0,0 0.6583028919086601,-0.7022316262463899 l 25.26704297860299 24.09836845265658" fill="#F5E1EE" stroke="none" /><path d="M 84.80347519578584 85.50635884689758 l -21.4587111005279 -20.466183045540713 a50.653683254353034,50.653683254353034 0 0,0 0.6072067738182659,-0.6257799554020148 l 21.103240063006517 20.832527196492855" fill="#F5E1EE" stroke="none" /><path d="M 85.05521093208273 85.24692304244772 l -28.177125425065572 -27.81566858852482 a60.59370930143478,60.59370930143478 0 0,0 0.739139955147451,-0.7359658532821369 l 27.69414966975081 28.296570292457066" fill="#F5E1EE" stroke="none" /><path d="M 85.57189188830299 84.74124197986013 l -32.190572262502954 -34.04383643931442 a67.85312948026223,67.85312948026223 0 0,0 0.8555701783914413,-0.7951592374083652 l 31.59979420031666 34.592900262797436" fill="#F5E1EE" stroke="none" /><path d="M 85.83668400450813 84.49514656593479 l -22.635893551035952 -24.77994644542462 a54.56232147352062,54.56232147352062 0 0,0 0.6988888079825445,-0.6274692723668808 l 22.205993755457435 25.16591472656078" fill="#F5E1EE" stroke="none" /><path d="M 86.37877921826538 84.01681056812374 l -29.438580735396542 -34.54333646293828 a66.38581419018746,66.38581419018746 0 0,0 0.8761108597925426,-0.7337176494767589 l 28.839612338644887 35.044955269808845" fill="#F5E1EE" stroke="none" /><path d="M 86.65592168130627 83.78471172551755 l -15.178961846539737 -18.444978826616058 a44.88761450319022,44.88761450319022 0 0,0 0.6008455182568385,-0.4858419564253882 l 14.8592129297184 18.70352688030558" fill="#F5E1EE" stroke="none" /><path d="M 86.93701828274178 83.55741782278169 l -22.574511041143815 -28.414894925110286 a57.29069856522167,57.29069856522167 0 0,0 0.777427808726799,-0.6067947360668315 l 22.082050677257588 28.79926805040034" fill="#F5E1EE" stroke="none" /><path d="M 87.80319425747017 82.90503203632743 l -17.274830638932052 -24.212296447476238 a50.74315169689076,50.74315169689076 0 0,0 0.7154031950872392,-0.5011856565649386 l 16.855496304261155 24.50606694680512" fill="#F5E1EE" stroke="none" /><path d="M 88.09926311788651 82.69761687909137 l -20.091134910439624 -29.210335208465928 a56.452748623772884,56.452748623772884 0 0,0 0.8053799274061925,-0.5437961221231982 l 19.58535028862689 29.55184324288779" fill="#F5E1EE" stroke="none" /><path d="M 88.70189139769569 82.29822771554957 l -19.53030665290649 -30.599904212703894 a57.30133628095827,57.30133628095827 0 0,0 0.8360015228553896,-0.5235040769171202 l 19.000685977678856 30.931552630943944" fill="#F5E1EE" stroke="none" /><line stroke="#e1ed5e" stroke-width="0.3" x1="56.762969772571076" x2="54.21961505331055" y1="26.818313649435495" y2="22.513508569990535" /><path d="M 56.25429882871897 25.957352633546506 a86.0,86.0 0 0,1 42.265352541879196,-11.944610805530505" fill="none" id="id12" stroke="none" /><text fill="#e1ed5e" style="font-size:6.75px; font-family:Arial;" text-anchor="middle"><textPath startOffset="22.20632615414155" xlink:href="#id12">December</textPath></text><path d="M 89.63071344664047 81.73862282372117 l -14.964344865538516 -26.353746169448296 a51.30596565725104,51.30596565725104 0 0,0 0.7717294589534561,-0.42946660837384276 l 14.508491317513016 26.607428175382324" fill="#F5E1EE" stroke="none" /><path d="M 89.94658935756843 81.56283822128135 l -9.855190846943838 -18.0736423158085 a41.58594989767218,41.58594989767218 0 0,0 0.6314231485570709,-0.33728437839075576 l 9.542622651858462 18.24060542070101" fill="#F5E1EE" stroke="none" /><path d="M 90.58718382345135 81.22770947309562 l -13.509587131437797 -26.942616298161667 a51.139899094918626,51.139899094918626 0 0,0 0.7903031742137431,-0.387798335337686 l 13.043812690213628 27.17116979363418" fill="#F5E1EE" stroke="none" /><path d="M 90.91171255644093 81.06846463323043 l -13.737088185254661 -28.615310907655132 a52.741827454499685,52.741827454499685 0 0,0 0.8218226247137527,-0.38585674174141826 l 13.242487349241301 28.847532632036557" fill="#F5E1EE" stroke="none" /><path d="M 91.23893434514133 80.91482961587045 l -13.697490591716953 -29.83871506920542 a53.832455977148605,53.832455977148605 0 0,0 0.8454717422911324,-0.3793385258562837 l 13.181836730959047 30.070073925578235" fill="#F5E1EE" stroke="none" /><path d="M 92.57280143429618 80.3572730644239 l -12.792003140595206 -33.83103634929314 a57.168693158810584,57.168693158810584 0 0,0 0.9234586253311149,-0.3401176050973737 l 12.207762189491524 34.04621722219684" fill="#F5E1EE" stroke="none" /><path d="M 92.91201910852362 80.23233633223022 l -11.1416577702686 -31.07295954605599 a54.01007956398498,54.01007956398498 0 0,0 0.877838672245803,-0.3062606759323939 l 10.605137093959511 31.260141075160597" fill="#F5E1EE" stroke="none" /><path d="M 96.75951476605007 79.25152402106235 l -3.108355150350022 -19.902461364538123 a41.143729548115964,41.143729548115964 0 0,0 0.7006797117743162,-0.10326197568452551 l 2.7653064581470574 19.95301782438362" fill="#F5E1EE" stroke="none" /></svg>