<?xml version="1.0" encoding="utf-8" ?>
<svg baseProfile="full" height="200mm" version="1.1" viewBox="0,0,200,200" width="200mm" xmlns="http://www.w3.org/2000/svg" xmlns:ev="http://www.w3.org/2001/xml-events" xmlns:xlink="http://www.w3.org/1999/xlink"><defs /><rect fill="#222222" height="200" width="200" x="0" y="0" /><rect fill="#222222" height="200" width="180" x="10" y="0" /><text alignment-baseline="middle" fill="#D7F2E5" style="dominant-baseline: central; font-size:9.0px; font-family:Arial;" text-anchor="middle" x="100.0" y="100.0">2025</text><line stroke="#D7F2E5" stroke-width="0.3" x1="100.0" x2="100.0" y1="15.0" y2="10.0" /><path d="M 100.0 14.0 a86.0,86.0 0 0,1 42.46469731375804,11.215312516191453" fill="none" id="id1" stroke="none" /><text fill="#D7F2E5" style="font-size:6.75px; font-family:Arial;" text-anchor="middle"><textPath startOffset="22.20632615414155" xlink:href="#id1">January</textPath></text><line stroke="#D7F2E5" stroke-width="0.3" x1="143.23703022742887" x2="145.7803849466894" y1="26.81831364943548" y2="22.513508569990506" /><path d="M 143.74570117128098 25.957352633546492 a86.0,86.0 0 0,1 28.547481713284135,27.462654790039103" fill="none" id="id2" stroke="none" /><text fill="#D7F2E5" style="font-size:6.75px; font-family:Arial;" text-anchor="middle"><textPath startOffset="19.985693538727396" xlink:href="#id2">February</textPath></text><line stroke="#D7F2E5" stroke-width="0.3" x1="172.23445277983987" x2="176.4835382374775" y1="55.19839476539836" y2="52.563006222186495" /><path d="M 173.08426987136738 54.67131705675599 a86.0,86.0 0 0,1 12.851231095245387,41.99856678651699" fill="none" id="id3" stroke="none" /><text fill="#D7F2E5" style="font-size:6.75px; font-family:Arial;" text-anchor="middle"><textPath startOffset="22.20632615414155" xlink:href="#id3">March</textPath></text><line stroke="#D7F2E5" stroke-width="0.3" x1="184.98032266829074" x2="189.97916517819016" y1="98.17113171792111" y2="98.06355123074" /><path d="M 185.9800911702706 98.14961562048488 a86.0,86.0 0 0,1 -9.607161424134198,41.387399972396054" fill="none" id="id4" stroke="none" /><text fill="#D7F2E5" style="font-size:6.75px; font-family:Arial;" text-anchor="middle"><textPath startOffset="21.466115282336823" xlink:href="#id4">April</textPath></text><line stroke="#D7F2E5" stroke-width="0.3" x1="174.80103733775053" x2="179.2010983576182" y1="140.37084112569926" y2="142.7455964860345" /><path d="M 175.68104954172406 140.8457921977663 a86.0,86.0 0 0,1 -30.038265399797805,32.042727171017184" fill="none" id="id5" stroke="none" /><text fill="#D7F2E5" style="font-size:6.75px; font-family:Arial;" text-anchor="middle"><textPath startOffset="22.206326154141568" xlink:href="#id5">May</textPath></text><path d="M 116.0416608686014 113.55231037782055 l 9.719850333987356 8.211520591984941 a33.724172308944375,33.724172308944375 0 0,0 -0.37844541967278417,0.44021752103353823 l -9.577062404743794 -8.377615212180007" fill="#7ecdad" stroke="none" /><path d="M 115.56566222782051 114.09645910891815 l 20.41814494205027 18.490928368029763 a48.54659824345251,48.54659824345251 0 0,0 -0.5662696961582031,0.6145739155564558 l -20.096828837896343 -18.839653538387555" fill="#50be98" stroke="none" /><path d="M 114.81725581225074 114.88116024355365 l 24.804092402736867 24.91106844736122 a56.15400874882727,56.15400874882727 0 0,0 -0.6908281349785521,0.676120730125046 l -24.37161431538252 -25.33433928040884" fill="#3faf8c" stroke="none" /><path d="M 114.29624159901734 115.38237550388516 l 10.702848539514397 11.515980200511972 a36.72160191705569,36.72160191705569 0 0,0 -0.4667148617124113,0.42633296047172287 l -10.503034128335122 -11.69850592757028" fill="#75caa8" stroke="none" /><path d="M 113.48314897796784 116.09983520530334 l 10.593526109464952 12.649420760992705 a37.49941335383016,37.49941335383016 0 0,0 -0.4984384013859097,0.4101808708270045 l -10.374217579534351 -12.829896750676888" fill="#72c9a7" stroke="none" /><path d="M 112.92097659922987 116.55440617244103 l 25.39167411735581 32.531913010508795 a62.26817755371938,62.26817755371938 0 0,0 -0.8506167271061129,0.6522166341869624 l -24.8279286617562 -32.96416898652313" fill="#389d80" stroke="none" /><path d="M 112.04921762599082 117.19931262002967 l 22.153790293362675 31.622797164209324 a59.6107721348721,59.6107721348721 0 0,0 -0.8454599086993202,0.5815150345184287 l -21.606173500040473 -31.999452988092848" fill="#3ba585" stroke="none" /><path d="M 111.7513745106137 117.40417183066458 l 8.225360625380457 12.182029392732538 a35.69892504719167,35.69892504719167 0 0,0 -0.5122375878335462,0.33948314175413696 l -8.014448338806945 -12.321810555577994" fill="#78cbaa" stroke="none" /><path d="M 111.45004920935366 117.60387380957326 l 34.35014762806101 52.81162142871978 a84.0,84.0 0 0,0 -1.2188727918122781,0.7779422847047739 l -33.4359930342018 -53.39507814224836" fill="#1f5d50" stroke="none" /><line stroke="#D7F2E5" stroke-width="0.3" x1="143.8653032363475" x2="146.44561519142675" y1="172.8068346515853" y2="177.08958963109032" /><path d="M 144.38136562736335 173.6633856474863 a86.0,86.0 0 0,1 -40.68145358897372,12.25698825130547" fill="none" id="id6" stroke="none" /><text fill="#D7F2E5" style="font-size:6.75px; font-family:Arial;" text-anchor="middle"><textPath startOffset="21.466115282336833" xlink:href="#id6">June</textPath></text><path d="M 110.8373102113329 117.98757091392108 l 22.356747466666036 37.10732392256768 a64.32179181408176,64.32179181408176 0 0,0 -0.9532861050269453,0.5632182338760747 l -21.714693490610706 -37.486660728737505" fill="#36977b" stroke="none" /><path d="M 109.89434966115114 118.52300852407294 l 7.681472654809263 14.380326988152076 a37.30333789236908,37.30333789236908 0 0,0 -0.5689808806216151,0.29766390504408813 l -7.432800871661152 -14.51042031214088" fill="#73c9a8" stroke="none" /><path d="M 108.92500713936063 119.00905698771935 l 14.124023438043489 30.08225788925096 a54.23296974081317,54.23296974081317 0 0,0 -0.848441249734964,0.38947776433788234 l -13.604114192541104 -30.32092272392292" fill="#42b58f" stroke="none" /><path d="M 108.2653958097858 119.30500536409082 l 20.92109320159611 48.86418337053886 a74.15449705546575,74.15449705546575 0 0,0 -1.1777448178385386,0.49229742937444204 l -20.076876924260112 -49.21706584293327" fill="#2a7a67" stroke="none" /><path d="M 107.59598834532513 119.57807347666477 l 11.06400240153026 28.51661194246914 a51.5877312957081,51.5877312957081 0 0,0 -0.8306356283093355,0.31407531996120014 l -10.57149655246065 -28.70283551253697" fill="#46bb94" stroke="none" /><path d="M 106.57524785965236 119.94407469862006 l 5.56760938463572 16.887700635787688 a38.7818083170376,38.7818083170376 0 0,0 -0.635797562015747,0.20356230153218907 l -5.276090477529032 -16.981035783979582" fill="#6ec8a5" stroke="none" /><path d="M 105.53697534728816 120.25689768951611 l 6.822323836639675 24.95931574469492 a46.874921158823994,46.874921158823994 0 0,0 -0.7801539494031687,0.20604574874628215 l -6.391679444425009 -25.073052842744787" fill="#55c09a" stroke="none" /><path d="M 104.48393922423573 120.51570834832081 l 3.651357533061188 16.70633397946996 a38.10070194079282,38.10070194079282 0 0,0 -0.6419216034374651,0.1345209132871644 l -3.363244468194345 -16.766710873483664" fill="#71c9a6" stroke="none" /><path d="M 103.7750983002368 120.6578951692458 l 3.687524344256746 20.178677554679627 a41.512846307746216,41.512846307746216 0 0,0 -0.7040401385536442,0.12240640252450695 l -3.339635234231052 -20.23916253572514" fill="#66c5a1" stroke="none" /><path d="M 103.06178313531738 120.77559828337769 l 2.5227313562647846 17.11788553215246 a38.302779504685255,38.302779504685255 0 0,0 -0.6531014389858498,0.09051390836957346 l -2.2277013260921046 -17.15877400601464" fill="#70c8a6" stroke="none" /><path d="M 102.34483914955558 120.86867818915974 l 4.549232474389723 40.48741191211648 a61.742189919632864,61.742189919632864 0 0,0 -1.0571656623469583,0.10957954339186782 l -3.851634215437162 -40.559720823964106" fill="#399f81" stroke="none" /><path d="M 101.62511606390274 120.93702456842531 l 1.2299456365140282 15.845884845713401 a36.89354689213171,36.89354689213171 0 0,0 -0.6335803283929264,0.04369540894635134 l -0.9570025473421714 -15.864708599176039" fill="#74caa8" stroke="none" /><line stroke="#D7F2E5" stroke-width="0.3" x1="102.19456741930631" x2="102.32365962044197" y1="184.97166512339345" y2="189.96999836594603" /><path d="M 102.22038585953345 185.97133177190398 a86.0,86.0 0 0,1 -42.740103519485714,-10.115201625700543" fill="none" id="id7" stroke="none" /><text fill="#D7F2E5" style="font-size:6.75px; font-family:Arial;" text-anchor="middle"><textPath startOffset="22.20632615414155" xlink:href="#id7">July</textPath></text><path d="M 100.54218724476979 120.99299961872073 l 0.36843777163209107 14.265577204197816 a35.27033424137268,35.27033424137268 0 0,0 -0.6070533593233807,0.010450974104217836 l -0.12282472241604245 -14.269805655581193" fill="#79ccab" stroke="none" /><path d="M 99.81925306533755 120.99922214144158 l -0.1313896129369147 15.264876686805144 a36.26544213227232,36.26544213227232 0 0,0 -0.6241806024032387,-0.010745835126161193 l 0.3941299052328213 -15.260353374399822" fill="#76caa9" stroke="none" /><path d="M 99.09653310690486 120.98055641714683 l -0.6572182112605686 15.262101871259922 a36.27624591664877,36.27624591664877 0 0,0 -0.6236265528131741,-0.032234369464121455 l 0.9198328324872316 -15.2485276950336" fill="#76caa9" stroke="none" /><path d="M 98.73552117531835 120.96189622390904 l -1.226186504397845 20.327105329594247 a41.3640552057783,41.3640552057783 0 0,0 -0.7103532701142767,-0.048990120499403766 l 1.5759025352910518 -20.302986864578557" fill="#66c5a2" stroke="none" /><path d="M 98.01472825383883 120.90594882070398 l -3.4655660006120996 36.49422079554762 a57.6584001175553,57.6584001175553 0 0,0 -0.9872419625783387,-0.10233166601008217 l 4.0932405597960315 -36.42915976108177" fill="#3eab89" stroke="none" /><path d="M 97.65516085044442 120.86867818915974 l -1.4657596971676274 13.045017364465652 a34.12710667013304,34.12710667013304 0 0,0 -0.5832039387862268,-0.07061787507067907 l 1.6900910590052436 -13.017853960669624" fill="#7dcdac" stroke="none" /><path d="M 96.93821686468263 120.77559828337769 l -2.3772212230750154 16.130532757737946 a37.30476212006465,37.30476212006465 0 0,0 -0.6344725307572664,-0.09909156071765607 l 2.6545296174407986 -16.087222889673182" fill="#73c9a8" stroke="none" /><path d="M 96.22490169976321 120.6578951692458 l -7.329307359257442 40.107051803452336 a61.77124416462263,61.77124416462263 0 0,0 -1.0443234365066778,-0.20014707211722682 l 8.018598410335814 -39.97494753298664" fill="#399f81" stroke="none" /><path d="M 95.51606077576429 120.51570834832081 l -3.2884808261651193 15.04603656847025 a36.40121172388068,36.40121172388068 0 0,0 -0.6109854128739161,-0.13905829077237677 l 3.546986388431898 -14.987201544120186" fill="#76caa9" stroke="none" /><path d="M 94.81253420990036 120.34920634021253 l -3.7779391181367017 14.819965232820868 a36.29392668618386,36.29392668618386 0 0,0 -0.604051154510495,-0.15953540004173156 l 4.032480715458686 -14.752738483475555" fill="#76caa9" stroke="none" /><path d="M 94.11515582081647 120.15858648285463 l -4.283672195357261 14.673757500625904 a36.28623585662775,36.28623585662775 0 0,0 -0.598074967302026,-0.18019508156433384 l 4.535622137099533 -14.597847049955844" fill="#76caa9" stroke="none" /><path d="M 93.76903079525671 120.05430185196036 l -4.551475172107748 14.648869858587677 a36.33966474132182,36.33966474132182 0 0,0 -0.5957605189042122,-0.19074370465602547 l 4.802957036102901 -14.568353307271945" fill="#76caa9" stroke="none" /><path d="M 93.08242187328487 119.8279376855182 l -4.829343787302635 13.842406391736935 a35.66065401440052,35.66065401440052 0 0,0 -0.577839191250072,-0.20719257544858607 l 5.066902539182434 -13.75722627524839" fill="#78cbaa" stroke="none" /><path d="M 92.7421414339146 119.70592522655815 l -5.2820706102552535 14.341432467900981 a36.2832246323571,36.2832246323571 0 0,0 -0.5842113683354271,-0.22089875052480784 l 5.528152199350964 -14.24838546726954" fill="#76caa9" stroke="none" /><path d="M 91.40352486487194 119.15986991738527 l -5.842212714487723 13.021155052478576 a35.27171777684839,35.27171777684839 0 0,0 -0.5518041968549496,-0.2533062424893436 l 6.0654849071100925 -12.918661739655159" fill="#79ccab" stroke="none" /><path d="M 90.7491055286396 118.85261126421891 l -6.477680114947521 13.201013748361131 a35.70466265019385,35.70466265019385 0 0,0 -0.5494201053769255,-0.27549064661028144 l 6.703954128007207 -13.087555260841548" fill="#78cbaa" stroke="none" /><path d="M 90.42595943632237 118.69057910512821 l -6.969032314091645 13.605044692090827 a36.286093433858184,36.286093433858184 0 0,0 -0.5534650399351604,-0.289546750520853 l 7.2021882565533 -13.483068522625256" fill="#76caa9" stroke="none" /><line stroke="#D7F2E5" stroke-width="0.3" x1="58.666819895761336" x2="56.23545636021788" y1="174.27360380694188" y2="178.64263932499728" /><path d="M 58.180547188652646 175.14741091055294 a86.0,86.0 0 0,1 -31.652253787137756,-30.449443065178592" fill="none" id="id8" stroke="none" /><text fill="#D7F2E5" style="font-size:6.75px; font-family:Arial;" text-anchor="middle"><textPath startOffset="22.20632615414155" xlink:href="#id8">August</textPath></text><path d="M 89.7882731507175 118.34994917583269 l -7.44703161506607 13.3819336987929 a36.31451694943992,36.31451694943992 0 0,0 -0.5435958657960551,-0.3086679195796268 l 7.676276247783332 -13.25176261341864" fill="#76caa9" stroke="none" /><path d="M 89.1626897886671 117.98757091392108 l -10.527875774058135 17.47397724767457 a41.40039335812544,41.40039335812544 0 0,0 -0.6072467754898538,-0.3730205667237688 l 10.827101749480297 -17.29016821412242" fill="#66c5a2" stroke="none" /><path d="M 88.8546689885994 117.79835938074946 l -5.7678644287819125 9.210899511005273 a31.867793238309464,31.867793238309464 0 0,0 -0.46241412039613794,-0.29513457000369175 l 5.925560351224974 -9.110250512177778" fill="#84cfb0" stroke="none" /><path d="M 88.24862548938628 117.40417183066458 l -9.12984470830104 13.521600043215424 a37.31526071279205,37.31526071279205 0 0,0 -0.5292425477050936,-0.3640178502027594 l 9.361244140629026 -13.362441403647562" fill="#73c9a8" stroke="none" /><path d="M 87.65650970185807 116.9893568818739 l -9.635481807070066 13.262102954280154 a37.392860776091055,37.392860776091055 0 0,0 -0.5174727305037242,-0.3828139550008807 l 9.862339507992354 -13.094279050539503" fill="#73c9a7" stroke="none" /><path d="M 87.36589467227662 116.77436683061367 l -7.874044369228894 10.454409335985352 a34.08798110072455,34.08798110072455 0 0,0 -0.4656601181645164,-0.3570483218424597 l 8.052833215886897 -10.317321672315526" fill="#7dcdad" stroke="none" /><path d="M 87.07902340077011 116.55440617244103 l -15.060559612684518 19.29564836666453 a45.477387559484114,45.477387559484114 0 0,0 -0.6129539904524196,-0.48696772103680747 l 15.390471095854297 -19.033546731622593" fill="#5ac19c" stroke="none" /><path d="M 86.24171649860922 115.8653595955263 l -6.795934397679468 7.8367292690176065 a31.372996190756083,31.372996190756083 0 0,0 -0.404947168082711,-0.3573187934330948 l 6.929823918668767 -7.718587333812223" fill="#85d0b1" stroke="none" /><path d="M 85.97065885151581 115.62618273729859 l -6.842655210870978 7.621496947128627 a31.242516587731295,31.242516587731295 0 0,0 -0.3970781787168894,-0.36272150162512873 l 6.972832939054725 -7.502582678916919" fill="#86d0b1" stroke="none" /><path d="M 85.44109423537348 115.13401014063109 l -12.034792860399618 12.51018999190251 a38.35917892143011,38.35917892143011 0 0,0 -0.47190931910366185,-0.461862592488488 l 12.248352131879074 -12.301177296491451" fill="#70c8a6" stroke="none" /><path d="M 85.18274418774928 114.88116024355367 l -17.270800412568207 17.345286585480142 a45.477326521154296,45.477326521154296 0 0,0 -0.5499711151170364,-0.5571178359958228 l 17.566812152740777 -17.04542825550366" fill="#5ac19c" stroke="none" /><path d="M 84.9287848128048 114.62390073753433 l -9.427504658939043 9.147695830930836 a34.136140342944984,34.136140342944984 0 0,0 -0.4055592084177734,-0.4252272086216867 l 9.583570418735773 -8.984061505726649" fill="#7dcdac" stroke="none" /><path d="M 84.43433777217949 114.09645910891817 l -15.464177255988487 14.004553044488548 a41.86308424419853,41.86308424419853 0 0,0 -0.47911532497710474,-0.5382911466784648 l 15.702951430613929 -13.736287728069216" fill="#65c5a1" stroke="none" /><path d="M 84.19399662182784 113.82643327865904 l -21.61729504283693 18.90990912906129 a49.72093501678554,49.72093501678554 0 0,0 -0.557957655611908,-0.6490308066286808 l 21.939595208019618 -18.53500122327108" fill="#4cbd96" stroke="none" /><path d="M 83.95833913139862 113.55231037782056 l -6.297202111929786 5.320000106708417 a29.243613016989002,29.243613016989002 0 0,0 -0.32154605824705756,-0.38732294104747483 l 6.38784417007038 -5.21081590854718" fill="#8cd2b4" stroke="none" /><path d="M 83.72743513129214 113.27417163493432 l -11.054180819530036 9.017330375754858 a35.2655935977574,35.2655935977574 0 0,0 -0.37966281110503436,-0.47368773267943276 l 11.207761542689932 -8.825714809497166" fill="#79ccab" stroke="none" /><path d="M 83.50135304334701 112.99209946851258 l -10.161548638431686 8.001859244063452 a33.93394070239293,33.93394070239293 0 0,0 -0.3574264927759822,-0.46202192348905363 l 10.297781948425735 -7.825759326461146" fill="#7dcdad" stroke="none" /><path d="M 83.28015986056508 112.70617746262583 l -11.811275453877107 8.975932827429004 a35.83487775378946,35.83487775378946 0 0,0 -0.36899469398171,-0.4943286928395862 l 11.964031414553903 -8.771291255080111" fill="#78cbaa" stroke="none" /><path d="M 82.85270091963577 112.12312394758628 l -13.212897944265903 9.341506130756837 a37.181607116617116,37.181607116617116 0 0,0 -0.36498013148921366,-0.5257811009147189 l 13.371738982917247 -9.112683767655108" fill="#73caa8" stroke="none" /><path d="M 82.64656182679789 111.8261652097733 l -27.787150737024593 18.936618325721078 a54.62619900756197,54.62619900756197 0 0,0 -0.5228426839873939,-0.7815788723342318 l 28.108996526422718 -18.455502539181023" fill="#41b48f" stroke="none" /><path d="M 82.44556493220864 111.52570212397912 l -11.637438764621892 7.640784347038242 a34.92162226316563,34.92162226316563 0 0,0 -0.3255944667672247,-0.5053298429275382 l 11.767238094766164 -7.439332904189255" fill="#7accab" stroke="none" /><path d="M 82.24976979558568 111.22182372390057 l -9.158630719569441 5.7901524827407185 a31.835422577399996,31.835422577399996 0 0,0 -0.2888463672432286,-0.46571231468163693 l 9.256941726480626 -5.631643836693817" fill="#84cfb0" stroke="none" /><path d="M 82.05923443525364 110.91462005526583 l -23.97069116310858 14.583044718089045 a49.05814013948388,49.05814013948388 0 0,0 -0.43269075030993454,-0.7252145858449096 l 24.218162789116747 -14.168268038358026" fill="#4ebe97" stroke="none" /><line stroke="#D7F2E5" stroke-width="0.3" x1="26.63291911575756" x2="22.317208475507996" y1="142.92168965132927" y2="145.44649492493687" /><path d="M 25.769776987707644 143.4266507060508 a86.0,86.0 0 0,1 -11.730757126820373,-40.83630448921669" fill="none" id="id9" stroke="none" /><text fill="#D7F2E5" style="font-size:6.75px; font-family:Arial;" text-anchor="middle"><textPath startOffset="21.46611528233685" xlink:href="#id9">September</textPath></text><path d="M 81.87401531095188 110.60418214915194 l -23.253926423509874 13.604164171387998 a47.94101662729318,47.94101662729318 0 0,0 -0.41057600680211825,-0.7158738754140983 l 23.484654426464367 -13.201870450115592" fill="#52bf99" stroke="none" /><path d="M 81.69416730710424 110.29060199501025 l -16.20872419931374 9.111714958848097 a39.59424883292452,39.59424883292452 0 0,0 -0.32886528792898584,-0.5969860229712625 l 16.36316589669424 -8.831358417479013" fill="#6cc7a4" stroke="none" /><path d="M 81.51974371655577 109.97397251340807 l -14.501547522001047 7.826625029864715 a37.47880274446416,37.47880274446416 0 0,0 -0.30152141516245123,-0.5703648861752205 l 14.634121445388384 -7.575845128603368" fill="#72c9a7" stroke="none" /><path d="M 81.35079622478065 109.6543875284942 l -9.192969766879958 4.759049970011181 a31.351775198091985,31.351775198091985 0 0,0 -0.24397851463972017,-0.48139275563185446 l 9.273526951305945 -4.60010300267664" fill="#85d0b1" stroke="none" /><path d="M 81.18737489456691 109.33194174019688 l -8.562935184026287 4.247616258474088 a30.558561756095354,30.558561756095354 0 0,0 -0.2296937836065546,-0.4732372272809108 l 8.63478222424756 -4.099590075227893" fill="#88d0b2" stroke="none" /><path d="M 81.02952815118164 109.00673069616217 l -16.639046216823612 7.899825028614713 a39.419150210808304,39.419150210808304 0 0,0 -0.2857426306994629,-0.6154642056688397 l 16.7725634643629 -7.612240755667046" fill="#6cc7a4" stroke="none" /><path d="M 80.87730276802145 108.67885076344099 l -14.925803051411968 6.774087129878898 a37.39109066452656,37.39109066452656 0 0,0 -0.2609522708813038,-0.5883784814497729 l 15.04019640702455 -6.516160311936429" fill="#73c9a7" stroke="none" /><path d="M 80.58989483394504 108.01547362559985 l -13.1740467079482 5.440270571776681 a35.25314177847608,35.25314177847608 0 0,0 -0.2267908234993229,-0.5628762249452494 l 13.26574014570491 -5.212694978988626" fill="#79ccab" stroke="none" /><path d="M 80.45479744820244 107.68017299344265 l -12.054346176445902 4.736684806033592 a33.951580779708145,33.951580779708145 0 0,0 -0.20905398150758348,-0.5457739780947519 l 12.134094437546997 -4.528487261105682" fill="#7dcdad" stroke="none" /><path d="M 80.32549172779595 107.34259656027581 l -23.696446520354893 8.843598239094684 a46.29290033797149,46.29290033797149 0 0,0 -0.2721928609258397,-0.7489578510858133 l 23.845163642285957 -8.434392591002753" fill="#57c09b" stroke="none" /><path d="M 80.20201598880116 107.00284435728193 l -16.47462550162538 5.827322527744797 a38.47486690253083,38.47486690253083 0 0,0 -0.2154760536179301,-0.6262742739186281 l 16.57249238618654 -5.542875550736872" fill="#6fc8a6" stroke="none" /><path d="M 80.0844068197444 106.66101706037122 l -18.547383634936292 6.203402414347524 a40.55729125456374,40.55729125456374 0 0,0 -0.2157411290916987,-0.6639829212971251 l 18.651417015044238 -5.883220593072595" fill="#69c6a3" stroke="none" /><path d="M 79.97269907076064 106.31721596034903 l -16.466968052634968 5.194179373856051 a38.26674654398715,38.26674654398715 0 0,0 -0.19274272798320966,-0.6298943870687381 l 16.55393755312431 -4.909958014235265" fill="#70c8a6" stroke="none" /><path d="M 79.86692584326677 105.97154293290107 l -13.462852027706974 3.993130818318665 a35.04255954063005,35.04255954063005 0 0,0 -0.16654787926247533,-0.5797750167417625 l 13.529592543855554 -3.760798326072307" fill="#7accab" stroke="none" /><path d="M 79.76711848015287 105.62410040840567 l -11.868934759333277 3.2991880450556277 a33.31893883733285,33.31893883733285 0 0,0 -0.14884351174195326,-0.553902078337265 l 11.923966347417004 -3.0943950335428236" fill="#7fceae" stroke="none" /><path d="M 79.58551787078972 104.9243191809786 l -19.821882199387595 4.781374031422397 a41.39040341814647,41.39040341814647 0 0,0 -0.16110610244310988,-0.69404087278648 l 19.901248867761257 -4.439464501287342" fill="#66c5a2" stroke="none" /><path d="M 79.50377843672027 104.57218783832718 l -7.542015648163072 1.6824326433308974 a28.727391515672156,28.727391515672156 0 0,0 -0.10350884257012756,-0.48355885261959297 l 7.5698585294576395 -1.5523599712951406" fill="#8dd2b5" stroke="none" /><path d="M 79.4281124754447 104.21870165774334 l -20.000529436177523 4.101532569018389 a41.41675163051464,41.41675163051464 0 0,0 -0.13720791366024188,-0.6996201957314746 l 20.068167282813434 -3.7566486462189594" fill="#66c5a2" stroke="none" /><path d="M 79.35854240842038 103.8639653848113 l -20.961610620903272 3.923896240840266 a42.325714091941805,42.325714091941805 0 0,0 -0.12789129236514488,-0.7172822860547177 l 21.026048355607607 -3.5624952040523348" fill="#63c4a0" stroke="none" /><path d="M 79.29508885075956 103.50808413554451 l -12.246958472029217 2.0750323638058323 a33.421503577524334,33.421503577524334 0 0,0 -0.09122199769864474,-0.5680394667476667 l 12.280862224089152 -1.8639136673649521" fill="#7fcdae" stroke="none" /><path d="M 79.23777060512086 103.15116336523772 l -17.647903367206833 2.6784901325535775 a38.850008477545806,38.850008477545806 0 0,0 -0.09465702627460974,-0.6620310212995043 l 17.69139444449804 -2.3743136392736726" fill="#6ec8a5" stroke="none" /><path d="M 79.18660465613746 102.79330883721812 l -17.245398157029914 2.314457697916245 a38.40001356407329,38.40001356407329 0 0,0 -0.08228298358494565,-0.6558763381217038 l 17.28268264986171 -2.0172636055071327" fill="#70c8a6" stroke="none" /><path d="M 79.04373962182676 101.35467743843564 l -26.443723025197336 1.7094039835364265 a47.49891600447614,47.49891600447614 0 0,0 -0.045720305777956605,-0.8163667728296565 l 26.469229681862824 -1.2539654943713323" fill="#53bf99" stroke="none" /><path d="M 79.0235259727143 100.99374915477108 l -12.946155848090065 0.6133171578235393 a33.9606754908499,33.9606754908499 0 0,0 -0.02263700113354266,-0.5841604140032899 l 12.954794982074807 -0.39037949680625267" fill="#7dcdad" stroke="none" /><path d="M 79.0095281055655 100.63252640178507 l -18.51825315270211 0.5580286185528541 a39.52665905571443,39.52665905571443 0 0,0 -0.014639803638401394,-0.6802541490726917 l 18.525115019025517 -0.23918465369003353" fill="#6cc7a4" stroke="none" /><line stroke="#D7F2E5" stroke-width="0.3" x1="15.007084014347285" x2="10.007500721073583" y1="101.09737516637583" y2="101.16192664675087" /><path d="M 14.007167355692545 101.11028546245083 a86.0,86.0 0 0,1 10.666146001902534,-42.60595125391555" fill="none" id="id10" stroke="none" /><text fill="#D7F2E5" style="font-size:6.75px; font-family:Arial;" text-anchor="middle"><textPath startOffset="22.20632615414155" xlink:href="#id10">October</textPath></text><path d="M 79.00175016825051 100.2711162175752 l -18.81203229339975 0.24288914938889472 a39.81360024415332,39.81360024415332 0 0,0 -0.0029494345625939436,-0.6853447203261552 l 18.813426025251847 0.08096504914093591" fill="#6bc7a4" stroke="none" /><path d="M 79.00019446554 99.90962569577889 l -17.006138507898697 -0.07318724607317495 a38.006295990686,38.006295990686 0 0,0 0.008446433946215597,-0.6541856174311734 l 17.002359066834764 0.36590912156482036" fill="#71c9a7" stroke="none" /><path d="M 79.00486145842228 99.54816195383935 l -22.79768490905338 -0.49063078987992725 a43.80296375001413,43.80296375001413 0 0,0 0.02271143109802177,-0.7536818301971866 l 22.785861783499712 0.8829827675021084" fill="#5fc39e" stroke="none" /><path d="M 79.01574976396665 99.18683210126434 l -27.055808015502624 -1.0484489226487776 a48.07611479727362,48.07611479727362 0 0,0 0.03916232639683084,-0.826654813810129 l 27.033752080872294 1.5140148430819158" fill="#51bf98" stroke="none" /><path d="M 79.03285615573316 98.82574320788736 l -19.339130612315056 -1.0830805399026242 a40.36943562151714,40.36943562151714 0 0,0 0.04482816096091285,-0.693471808651614 l 19.317621860349732 1.4158114128072499" fill="#69c6a3" stroke="none" /><path d="M 79.05617556472873 98.46500227214037 l -31.50722170817218 -2.3092016399719975 a52.591730436650124,52.591730436650124 0 0,0 0.07394276133180767,-0.9022889783945299 l 31.462804463020877 2.851204535574306" fill="#44b992" stroke="none" /><path d="M 79.08570108090925 98.10471618934814 l -28.833062280154955 -2.61289352143725 a49.9512122890504,49.9512122890504 0 0,0 0.08497147041057439,-0.8556511110166188 l 28.783813684062153 3.108820163158299" fill="#4cbd96" stroke="none" /><path d="M 79.12142395522702 97.74499172005258 l -19.68800265792093 -2.1264193934506084 a40.802502571522226,40.802502571522226 0 0,0 0.08142945139726915,-0.6976378114438564 l 19.64848285352007 2.465000943219327" fill="#68c6a2" stroke="none" /><path d="M 79.16333360222342 97.38593545837743 l -21.194529900903177 -2.6589603170026344 a42.36066870881325,42.36066870881325 0 0,0 0.09699383019549353,-0.7227166960115864 l 21.145620071649848 3.0233953550788804" fill="#63c4a0" stroke="none" /><path d="M 79.21141760316559 97.0276538004421 l -7.105358561716361 -1.0159223517150369 a28.177619279069503,28.177619279069503 0 0,0 0.07278427537145801,-0.47955743528653044 l 7.0868183929056014 1.1380788993936595" fill="#8fd3b6" stroke="none" /><path d="M 79.26566170972629 96.67025291283419 l -16.410555968768165 -2.63538677583021 a37.620818591823124,37.620818591823124 0 0,0 0.10818339061169444,-0.6385044953008515 l 16.36276071663625 2.917477059446889" fill="#72c9a7" stroke="none" /><path d="M 79.32604984820605 96.31383870115002 l -16.32804835836412 -2.9112878527053114 a37.58555878330262,37.58555878330262 0 0,0 0.1190464873292722,-0.6359510955488845 l 16.27551614712499 3.191917025716769" fill="#72c9a7" stroke="none" /><path d="M 79.46518482838121 95.60439243477599 l -15.946091419391562 -3.4133621117616153 a37.30732572991669,37.30732572991669 0 0,0 0.13982361623274994,-0.6268018549154815 l 15.884973416156775 3.687342136227056" fill="#73c9a8" stroke="none" /><path d="M 79.71946130924805 94.55025226153421 l -15.838117511716558 -4.255988778561996 a37.39998191456894,37.39998191456894 0 0,0 0.17241966809091053,-0.620285283484778 l 15.762511073059287 4.5279853654657165" fill="#73c9a7" stroke="none" /><path d="M 79.81627453868168 94.20196356495316 l -11.511336121498497 -3.306780325387945 a32.976880037075134,32.976880037075134 0 0,0 0.1614204190221904,-0.5442294065540446 l 11.452709805364599 3.5044391186885284" fill="#80ceae" stroke="none" /><path d="M 79.91906864156998 93.8553929516997 l -20.635858632221854 -6.314410429277649 a42.5803253116911,42.5803253116911 0 0,0 0.22049413700058823,-0.6990266697483161 l 20.52410901145306 6.668687265452379" fill="#63c4a0" stroke="none" /><path d="M 80.02781315780177 93.51064311812611 l -10.684790844216126 -3.47169899541484 a32.23465394658016,32.23465394658016 0 0,0 0.17600536456406182,-0.5262336376608951 l 10.623448185880292 3.6551057359980574" fill="#83cfaf" stroke="none" /><path d="M 80.14247586403 93.16781622104843 l -20.244956894701097 -6.965483972445595 a42.409723179870916,42.409723179870916 0 0,0 0.24344578443058315,-0.6882540153471609 l 20.122058029460707 7.312935614219366" fill="#63c4a0" stroke="none" /><path d="M 80.2630227832202 92.82701384747504 l -12.434178043721 -4.518938535826736 a34.22987487142389,34.22987487142389 0 0,0 0.20602376761482952,-0.552041268634858 l 12.354549687604543 4.732302941490936" fill="#7ccdac" stroke="none" /><path d="M 80.52162464483688 92.15188598940014 l -18.52752901510245 -7.4650045188023375 a40.97487481490691,40.97487481490691 0 0,0 0.2692211479528569,-0.6519403641977414 l 18.39628618026339 7.78281945345339" fill="#68c6a2" stroke="none" /><path d="M 80.95270993114464 91.15688171328213 l -15.4067126158458 -7.1529010992575515 a37.98619403406843,37.98619403406843 0 0,0 0.2804499110533168,-0.5906990363226388 l 15.281304510950733 7.417042551220723" fill="#71c9a7" stroke="none" /><path d="M 81.10775173730289 90.83032412892265 l -14.263492922166083 -6.923030285596965 a36.85482824492195,36.85482824492195 0 0,0 0.2819218634223075,-0.5683372735540771 l 14.142211045790363 7.167527147650004" fill="#74caa8" stroke="none" /><path d="M 81.43458229118936 90.18545643968196 l -21.261929039905457 -11.240044905615633 a45.05011925081102,45.05011925081102 0 0,0 0.3683209811717266,-0.6824428398487068 l 21.065299959515258 11.604368728796814" fill="#5bc29d" stroke="none" /><line stroke="#D7F2E5" stroke-width="0.3" x1="26.266209847984257" x2="21.92892807433627" y1="57.711370442889674" y2="55.22380399835377" /><path d="M 25.39875349325466 57.213857153982495 a86.0,86.0 0 0,1 29.58750427330802,-30.492523968695096" fill="none" id="id11" stroke="none" /><text fill="#D7F2E5" style="font-size:6.75px; font-family:Arial;" text-anchor="middle"><textPath startOffset="21.46611528233685" xlink:href="#id11">November</textPath></text><path d="M 81.78341655067847 89.55222093294921 l -15.959135873709142 -9.153062437499367 a39.39762402649516,39.39762402649516 0 0,0 0.34245976737581774,-0.5853747524098786 l 15.799216431862998 9.426416602263137" fill="#6dc7a5" stroke="none" /><path d="M 81.96595687620814 89.24020034530311 l -19.29504552328238 -11.5121619003383 a43.46839231821316,43.46839231821316 0 0,0 0.38890591383280565,-0.6392590664162986 l 19.094023811163357 11.842588739961675" fill="#60c39f" stroke="none" /><path d="M 82.34701348167596 88.62581576622439 l -12.85279877741532 -8.281324016319864 a36.289694695317,36.289694695317 0 0,0 0.3428570252087965,-0.5221947714614419 l 12.708345116848603 8.501336851758973" fill="#76caa9" stroke="none" /><path d="M 82.54541684631803 88.32363383020206 l -16.30787039778918 -10.9092646061861 a40.62036419536787,40.62036419536787 0 0,0 0.39377677837154196,-0.5778188327579008 l 16.1176691537489 11.188361462214417" fill="#69c6a3" stroke="none" /><path d="M 82.95767976084542 87.72973835380427 l -15.01530997279251 -10.810839104032464 a39.50226406990019,39.50226406990019 0 0,0 0.4020528915284346,-0.5483996922086563 l 14.826994468750444 11.067701239912621" fill="#6cc7a4" stroke="none" /><path d="M 83.17141714833178 87.43820079747576 l -16.39034289409009 -12.234672290047856 a41.453130475081664,41.453130475081664 0 0,0 0.43175223752045144,-0.5681353351485084 l 16.177314716345528 12.514992401077391" fill="#66c5a2" stroke="none" /><path d="M 83.39014120810768 87.1503855733568 l -16.17554452294402 -12.513622955198594 a41.450892402988615,41.450892402988615 0 0,0 0.4414439496031795,-0.5605889866610761 l 15.95774649274687 12.790204335812717" fill="#66c5a2" stroke="none" /><path d="M 83.84228863543731 86.58626213691792 l -15.30082037979561 -12.702367868435873 a40.88630819835197,40.88630819835197 0 0,0 0.4542067503033283,-0.5376375281752668 l 15.079903016005156 12.963864346240257" fill="#68c6a2" stroke="none" /><path d="M 84.07557802195018 86.31012108654704 l -16.69041464462606 -14.348386133901911 a43.0101368841063,43.0101368841063 0 0,0 0.48746488224038076,-0.5572566272260687 l 16.440957898807834 14.633558317330921" fill="#61c49f" stroke="none" /><path d="M 84.5562425177563 85.77008943001954 l -15.912599238625967 -14.661902348695117 a42.637518226723486,42.637518226723486 0 0,0 0.5019708483679212,-0.5354675021336452 l 15.657861068287591 14.933639267706813" fill="#62c4a0" stroke="none" /><path d="M 84.80347519578584 85.50635884689758 l -13.297856714025494 -12.68279200682855 a39.37624026495156,39.37624026495156 0 0,0 0.47201937312859515,-0.486457455683301 l 13.07757307719378 12.909813658061974" fill="#6dc7a5" stroke="none" /><path d="M 85.05521093208273 85.24692304244772 l -17.461224710109867 -17.237231703348822 a45.53602504832201,45.53602504832201 0 0,0 0.5554618771459329,-0.55307654732026 l 17.161927032796623 17.535244101319194" fill="#59c19c" stroke="none" /><path d="M 85.57189188830299 84.74124197986013 l -19.9483377861738 -21.096796394010173 a50.03465168590128,50.03465168590128 0 0,0 0.6308943477855747,-0.5863475389167958 l 19.582235554593368 21.437048519001618" fill="#4bbd96" stroke="none" /><path d="M 85.83668400450813 84.49514656593479 l -14.027350833210328 -15.356009765394319 a41.79840396070939,41.79840396070939 0 0,0 0.5353957810217075,-0.4806836184939725 l 13.760944064592648 15.59519239265757" fill="#65c5a1" stroke="none" /><path d="M 86.37877921826538 84.01681056812374 l -18.242942302063245 -21.40633407834197 a49.12536368671512,49.12536368671512 0 0,0 0.6483202042817003,-0.5429495263949818 l 17.871764560822434 21.717184762130763" fill="#4ebe97" stroke="none" /><path d="M 86.65592168130627 83.78471172551755 l -9.40632728393364 -11.430261788814539 a35.80303609173835,35.80303609173835 0 0,0 0.4792434174504847,-0.3875148477659174 l 9.208180467918655 11.59048273384459" fill="#78cbaa" stroke="none" /><path d="M 86.93701828274178 83.55741782278169 l -13.989312396630007 -17.608569288623826 a43.48916569645864,43.48916569645864 0 0,0 0.5901426869889608,-0.46061572788307337 l 13.684137154481622 17.84676340573012" fill="#60c39f" stroke="none" /><path d="M 87.80319425747017 82.90503203632743 l -10.705126767372564 -15.004239880377853 a39.43168341452939,39.43168341452939 0 0,0 0.5559282653732234,-0.38946327692890714 l 10.445267362415683 15.186288000070702" fill="#6cc7a4" stroke="none" /><path d="M 88.09926311788651 82.69761687909137 l -12.450376539838361 -18.10149968239603 a42.96989227865128,42.96989227865128 0 0,0 0.6130275242162194,-0.4139189208467004 l 12.136944321215603 18.313130515541395" fill="#61c49f" stroke="none" /><path d="M 88.70189139769569 82.29822771554957 l -12.102834053483306 -18.96260869430462 a43.49575783607817,43.49575783607817 0 0,0 0.6345841501918722,-0.3973765366332903 l 11.774630750919192 19.168129572260842" fill="#60c39f" stroke="none" /><line stroke="#D7F2E5" stroke-width="0.3" x1="56.762969772571076" x2="54.21961505331055" y1="26.818313649435495" y2="22.513508569990535" /><path d="M 56.25429882871897 25.957352633546506 a86.0,86.0 0 0,1 42.265352541879196,-11.944610805530505" fill="none" id="id12" stroke="none" /><text fill="#D7F2E5" style="font-size:6.75px; font-family:Arial;" text-anchor="middle"><textPath startOffset="22.20632615414155" xlink:href="#id12">December</textPath></text><path d="M 89.63071344664047 81.73862282372117 l -9.273330206505223 -16.33128563954153 a39.78045643106625,39.78045643106625 0 0,0 0.5983660910615667,-0.33299008183854184 l 8.990840026371613 16.488491118940257" fill="#6bc7a4" stroke="none" /><path d="M 89.94658935756843 81.56283822128135 l -6.107212831101058 -11.200146396968677 a33.75701093038239,33.75701093038239 0 0,0 0.5125519118833604,-0.2737874805312864 l 5.913515872689392 11.303612604001716" fill="#7ecdad" stroke="none" /><path d="M 90.58718382345135 81.22770947309562 l -8.37182406240061 -16.696205534222788 a39.67754580700584,39.67754580700584 0 0,0 0.6131668413753996,-0.3008783061085571 l 8.083185954014784 16.83783900046617" fill="#6cc7a4" stroke="none" /><path d="M 90.91171255644093 81.06846463323043 l -9.181506217272357 -19.125716561231094 a42.21539748386441,42.21539748386441 0 0,0 0.6577998988270534,-0.30884587263297564 l 8.850928107145695 19.280927416504078" fill="#64c4a0" stroke="none" /><path d="M 91.23893434514133 80.91482961587045 l -8.488266903685721 -18.490903561825096 a41.346109936814024,41.346109936814024 0 0,0 0.6493660185238024,-0.29135160394652376 l 8.168718766695143 18.634275496288147" fill="#66c5a2" stroke="none" /><path d="M 92.57280143429618 80.3572730644239 l -7.927140826497006 -20.964925234900107 a43.413559551933446,43.413559551933446 0 0,0 0.7012688905305222,-0.25828325063400875 l 7.565089610193915 21.09827175334044" fill="#60c39f" stroke="none" /><path d="M 92.91201910852362 80.23233633223022 l -6.90442999542949 -19.255758735388262 a41.456182391572185,41.456182391572185 0 0,0 0.6737971949084923,-0.23507461094883705 l 6.571950796457712 19.37175419950931" fill="#66c5a2" stroke="none" /><path d="M 96.75951476605007 79.25152402106235 l -1.9262322518821235 -12.333456480317006 a33.48296917564345,33.48296917564345 0 0,0 0.5702165906934044,-0.08403510296307924 l 1.7136466807600703 12.364786067441054" fill="#7fcdad" stroke="none" /></svg>