<?xml version="1.0" encoding="utf-8" ?>
<svg baseProfile="full" height="200mm" version="1.1" viewBox="0,0,200,200" width="200mm" xmlns="http://www.w3.org/2000/svg" xmlns:ev="http://www.w3.org/2001/xml-events" xmlns:xlink="http://www.w3.org/1999/xlink"><defs /><rect fill="#222222" height="200" width="200" x="0" y="0" /><rect fill="#222222" height="200" width="180" x="10" y="0" /><text alignment-baseline="middle" fill="#D7F2E5" style="dominant-baseline: central; font-size:9.0px; font-family:Arial;" text-anchor="middle" x="100.0" y="100.0">2026</text><line stroke="#D7F2E5" stroke-width="0.3" x1="100.0" x2="100.0" y1="15.0" y2="10.0" /><path d="M 100.0 14.0 a86.0,86.0 0 0,1 42.46469731375804,11.215312516191453" fill="none" id="id13" stroke="none" /><text fill="#D7F2E5" style="font-size:6.75px; font-family:Arial;" text-anchor="middle"><textPath startOffset="22.20632615414155" xlink:href="#id13">January</textPath></text><path d="M 105.36241919743992 79.69619591428918 l 3.9475616394823856 -14.946708788186957 a36.45921558476943,36.45921558476943 0 0,0 0.6054002586503275,0.1654787598163943 l -4.204259787356424 14.876543487544268" fill="#8fd3b6" stroke="none" /><path d="M 106.0581310904928 79.89281104454417 l 4.484718780182918 -14.884968083099727 a36.54589905319801,36.54589905319801 0 0,0 0.6007704247905461,0.1866622953830018 l -4.740274577684183 14.805565652834204" fill="#8fd3b6" stroke="none" /><path d="M 106.74666289553966 80.11325718540242 l 8.838360925779051 -26.052318509904943 a48.510723792657174,48.510723792657174 0 0,0 0.7884563345880865,0.2750769333918244 l -9.285499264430412 25.89632072334091" fill="#63c4a0" stroke="none" /><path d="M 107.08798089147638 80.2323363322302 l 9.403387338959199 -26.225098670602087 a48.85999809277297,48.85999809277297 0 0,0 0.789246424561276,0.2906861188904887 l -9.853416089293052 26.059349283905274" fill="#62c4a0" stroke="none" /><path d="M 107.76421540070413 80.48803036053334 l 9.930685879872891 -24.956448448041172 a47.8596880321504,47.8596880321504 0 0,0 0.7628290276584926,0.3111771138781034 l -10.358798777119771 24.781810447979492" fill="#66c5a1" stroke="none" /><path d="M 108.76106565485865 80.91482961587045 l 10.577299433160487 -23.041667513799933 a46.35345548668347,46.35345548668347 0 0,0 0.7222790769903348,0.33911971135202224 l -10.97235672145042 22.856182819807906" fill="#6bc7a4" stroke="none" /><path d="M 109.41281617654863 81.2277094730956 l 7.766552391378488 -15.489092227958475 a38.32718425175396,38.32718425175396 0 0,0 0.5872080749169165,0.30079078325781283 l -8.03202095388416 15.353108919388161" fill="#88d1b2" stroke="none" /><path d="M 110.36928655335952 81.73862282372117 l 12.75959180307337 -22.470949889583952 a46.840874054900894,46.840874054900894 0 0,0 0.6977132599310965,0.4041605544268731 l -13.144501795469795 22.24798517776703" fill="#69c6a3" stroke="none" /><line stroke="#D7F2E5" stroke-width="0.3" x1="143.23703022742887" x2="145.7803849466894" y1="26.81831364943548" y2="22.513508569990506" /><path d="M 143.74570117128098 25.957352633546492 a86.0,86.0 0 0,1 28.547481713284135,27.462654790039103" fill="none" id="id14" stroke="none" /><text fill="#D7F2E5" style="font-size:6.75px; font-family:Arial;" text-anchor="middle"><textPath startOffset="19.985693538727396" xlink:href="#id14">February</textPath></text><path d="M 110.68208982089419 81.91981866633111 l 9.159247719902131 -15.502664968413587 a39.00623336284994,39.00623336284994 0 0,0 0.575133785862167,0.34651167076610295 l -9.424743571981937 15.34270668818887" fill="#86d0b1" stroke="none" /><path d="M 111.2981086023043 82.29822771554956 l 10.091842153665597 -15.811805145718928 a39.757890606906884,39.757890606906884 0 0,0 0.5737119923406773,0.37315823865567344 l -10.362521171790554 15.635747982903727" fill="#83cfb0" stroke="none" /><path d="M 111.60114157652 82.49532879139004 l 14.045250265277314 -21.19252543507628 a46.4242441250596,46.4242441250596 0 0,0 0.6623088383615493,0.44719388414466693 l -14.407963798045406 20.947619638632943" fill="#6bc7a4" stroke="none" /><path d="M 111.90073688211348 82.69761687909136 l 12.56659449990232 -18.270468015237654 a43.17497009740481,43.17497009740481 0 0,0 0.6087030569165994,0.4264353910197904 l -12.879228696402572 18.051447781453927" fill="#77cba9" stroke="none" /><path d="M 112.19680574252982 82.90503203632743 l 13.038022284196602 -18.274011898115223 a43.44837490634153,43.44837490634153 0 0,0 0.6050800351512428,0.43961637838435386 l -13.350647635701634 18.046876284914195" fill="#76caa9" stroke="none" /><path d="M 113.34407831869373 83.78471172551755 l 18.026280077388655 -21.904946972765572 a49.36852966419181,49.36852966419181 0 0,0 0.6515293289448094,0.5456370760108483 l -18.40066694329258 21.591408739360904" fill="#60c39f" stroke="none" /><path d="M 113.89432698308785 84.25364557470407 l 16.076519005109024 -18.219419082880545 a45.2981829575642,45.2981829575642 0 0,0 0.5802244522595881,0.5209312421524511 l -16.3877544449646 17.939988831958797" fill="#6fc8a6" stroke="none" /><path d="M 114.42810811169701 84.74124197986012 l 16.81548679840289 -17.7835820234582 a45.47481125263947,45.47481125263947 0 0,0 0.5641404916607209,0.5427027060096877 l -17.119110533676032 17.491496230686213" fill="#6ec8a5" stroke="none" /><path d="M 114.68862486808459 84.99185889309783 l 24.141123662084794 -24.66625662058927 a55.5140271098699,55.5140271098699 0 0,0 0.6771764920994946,0.6742684810364389 l -24.562135954351614 24.24705228890271" fill="#4abc95" stroke="none" /><path d="M 115.19652480421416 85.50635884689758 l 20.856169818362506 -19.891511057296817 a49.82103453443226,49.82103453443226 0 0,0 0.5865422757214162,0.6256824042621137 l -21.195479416054386 19.52955923615665" fill="#5fc39e" stroke="none" /><path d="M 115.9244219780498 86.31012108654704 l 26.060246604186506 -22.40342669629055 a55.366407737892516,55.366407737892516 0 0,0 0.6150664425997653,0.7280446660954667 l -26.442023660273392 21.951523080565977" fill="#4abc96" stroke="none" /><path d="M 116.15771136456269 86.58626213691792 l 25.80494252345401 -21.422633860180973 a54.538400381445406,54.538400381445406 0 0,0 0.5934336536619444,0.7274794910044975 l -26.169874669192364 20.975270199568374" fill="#4dbd97" stroke="none" /><path d="M 116.38621287248628 86.86637796730983 l 27.871558488100654 -22.339177300654093 a56.71921912676248,56.71921912676248 0 0,0 0.6040486623617721,0.7670804590973738 l -28.251961231056388 21.85610444760368" fill="#45bb94" stroke="none" /><path d="M 116.82858285166822 87.43820079747576 l 22.482812454790686 -16.782433675756316 a49.055782576118794,49.055782576118794 0 0,0 0.4992883242342475,0.6810287131440091 l -22.76836339153856 16.392942518940814" fill="#61c49f" stroke="none" /><path d="M 117.04232023915458 87.72973835380427 l 27.885363865127232 -20.07712012935727 a55.36108657448403,55.36108657448403 0 0,0 0.5501504820018811,0.7781488414107157 l -28.226826966932997 19.59414478761476" fill="#4abc96" stroke="none" /><path d="M 117.45458315368197 88.32363383020206 l 28.567829812906435 -19.110650688991154 a55.370596008446284,55.370596008446284 0 0,0 0.523129169062514,0.7967616143115417 l -28.892555617326874 18.616071010701937" fill="#4abc95" stroke="none" /><path d="M 117.65298651832404 88.62581576622439 l 26.04534689385948 -16.781555556950504 a51.98355534364144,51.98355534364144 0 0,0 0.4781803972101244,0.7563665531156376 l -26.33035488731556 16.330741356120658" fill="#57c09b" stroke="none" /><line stroke="#D7F2E5" stroke-width="0.3" x1="172.23445277983987" x2="176.4835382374775" y1="55.19839476539836" y2="52.563006222186495" /><path d="M 173.08426987136738 54.67131705675599 a86.0,86.0 0 0,1 12.851231095245387,41.99856678651699" fill="none" id="id15" stroke="none" /><text fill="#D7F2E5" style="font-size:6.75px; font-family:Arial;" text-anchor="middle"><textPath startOffset="22.20632615414155" xlink:href="#id15">March</textPath></text><path d="M 117.84615892207809 88.93136811851018 l 38.36037512820199 -23.79205928759507 a66.13956651454261,66.13956651454261 0 0,0 0.5917418883942872,0.972668076466883 l -38.7642328148825 23.128223437921108" fill="#379b7e" stroke="none" /><path d="M 118.21658344932153 89.55222093294921 l 33.53750316551794 -19.234804622317817 a59.66189115182889,59.66189115182889 0 0,0 0.5032689582661471,0.8952593204960331 l -33.863629765076524 18.65466179188699" fill="#40b18d" stroke="none" /><path d="M 118.3937258080291 89.86733742301442 l 22.911318081738873 -12.621295855944046 a47.15770642326817,47.15770642326817 0 0,0 0.38555220249088207,0.7143696759841269 l -23.125178383448223 12.225045196627459" fill="#68c6a3" stroke="none" /><path d="M 118.73160827565052 90.50648371742162 l 26.124067274092457 -13.240147582851215 a50.287683400313334,50.287683400313334 0 0,0 0.38467680047759273,0.7754849564662857 l -26.348104087523456 12.78850303788598" fill="#5dc29d" stroke="none" /><path d="M 118.89224826269711 90.83032412892265 l 24.820314312343395 -12.046964135646968 a48.58944268101628,48.58944268101628 0 0,0 0.35873309302320117,0.7555833822516715 l -25.024005599208355 11.617938337754756" fill="#63c4a0" stroke="none" /><path d="M 119.04729006885535 91.15688171328212 l 45.245556365258686 -21.006232668266833 a70.88408745998228,70.88408745998228 0 0,0 0.5042818300328011,1.1111181673876427 l -45.600440512254835 20.224292492037126" fill="#318b73" stroke="none" /><path d="M 119.34039704204932 91.81776055985345 l 32.212720325948226 -13.628065140148514 a55.97689966623527,55.97689966623527 0 0,0 0.367790389966082,0.8906336021749149 l -32.4425324028005 13.071556967520298" fill="#48bc95" stroke="none" /><path d="M 119.47837535516314 92.15188598940014 l 26.539235340594345 -10.69303475825645 a49.61244492881956,49.61244492881956 0 0,0 0.31233739170137464,0.794864593612116 l -26.719366282177422 10.23462115974855" fill="#5fc39e" stroke="none" /><path d="M 119.7369772167798 92.82701384747503 l 32.32461120184243 -11.747694998575831 a55.39315087528098,55.39315087528098 0 0,0 0.31797493725012016,0.8989579665716386 l -32.52203921990236 11.189539405577579" fill="#4abc95" stroke="none" /><path d="M 119.85752413597 93.16781622104841 l 29.384417851595497 -10.110008761663751 a52.07501069409441,52.07501069409441 0 0,0 0.2843362691928038,0.8501292538830334 l -29.55409141456007 9.602706404858404" fill="#56c09b" stroke="none" /><path d="M 119.97218684219823 93.5106431181261 l 44.413333125450585 -14.430766707812282 a67.69894203392138,67.69894203392138 0 0,0 0.35056612861347775,1.1113904285381855 l -44.65515473783227 13.664126112847677" fill="#35967a" stroke="none" /><path d="M 120.18372546131832 94.20196356495316 l 49.58374608996256 -14.243572970048561 a72.58902254614809,72.58902254614809 0 0,0 0.33464655686303224,1.2039017166042967 l -49.82157941739196 13.387959950025312" fill="#2e856e" stroke="none" /><path d="M 120.28053869075195 94.5502522615342 l 16.636014960480956 -4.470398261625403 a38.22618513725223,38.22618513725223 0 0,0 0.16528942043178188,0.6369275627217126 l -16.71050071278304 4.183374273354841" fill="#89d1b3" stroke="none" /><path d="M 120.45610955862082 95.25157060432595 l 33.86525170225561 -7.861062545352005 a55.76566664396158,55.76566664396158 0 0,0 0.2090033798787153,0.9369211705518594 l -33.995549469136364 7.276963205250182" fill="#49bc95" stroke="none" /><path d="M 120.53481517161879 95.60439243477599 l 16.85476816123215 -3.6078701376384754 a38.23658715346366,38.23658715346366 0 0,0 0.13222704194724358,0.644786016012897 l -16.91437449909439 3.3172084654621665" fill="#89d1b3" stroke="none" /><path d="M 120.6074358757038 95.95851677861258 l 50.55783764920792 -9.915287559371098 a72.52094598460596,72.52094598460596 0 0,0 0.22969896302563153,1.2270610453087536 l -50.721022336143406 9.043548436599782" fill="#2e856e" stroke="none" /><path d="M 120.73433829027371 96.67025291283417 l 31.562473255578535 -5.068647569805069 a52.966872011443364,52.966872011443364 0 0,0 0.13681622140836658,0.9014479557478495 l -31.6450453704262 4.524600501665137" fill="#53bf99" stroke="none" /><path d="M 120.78858239683441 97.02765380044208 l 22.82468251145452 -3.26346727371697 a44.0568070294939,44.0568070294939 0 0,0 0.10087750241499589,0.7516545650411536 l -22.877476012927353 2.8700943666111516" fill="#74caa8" stroke="none" /><path d="M 120.87857604477298 97.74499172005257 l 28.85139614806168 -3.1161194643928054 a50.01918779374702,50.01918779374702 0 0,0 0.0850871028110965,0.8568155135095644 l -28.900760376555006 2.619028420178806" fill="#5ec39e" stroke="none" /><path d="M 120.91429891909075 98.10471618934814 l 25.764957495614063 -2.3348574586450295 a46.870535249642394,46.870535249642394 0 0,0 0.06589889270963134,0.8041334068318501 l -25.80133087214319 1.8910101346054107" fill="#69c6a3" stroke="none" /><path d="M 120.94382443527127 98.46500227214037 l 62.831473305813795 -4.6049931835789 a84.0,84.0 0 0,0 0.09327763598233796,1.442963742987859 l -62.90143153280055 3.5227703763380056" fill="#1f5d50" stroke="none" /><path d="M 120.98425023603335 99.18683210126433 l 44.71200144455116 -1.7326501473232834 a65.74556011170901,65.74556011170901 0 0,0 0.034088464127668666,1.1312301686964132 l -44.73520160313448 0.962749831201871" fill="#389d7f" stroke="none" /><line stroke="#D7F2E5" stroke-width="0.3" x1="184.98032266829074" x2="189.97916517819016" y1="98.17113171792111" y2="98.06355123074" /><path d="M 185.9800911702706 98.14961562048488 a86.0,86.0 0 0,1 -9.607161424134198,41.387399972396054" fill="none" id="id16" stroke="none" /><text fill="#D7F2E5" style="font-size:6.75px; font-family:Arial;" text-anchor="middle"><textPath startOffset="21.466115282336823" xlink:href="#id16">April</textPath></text><path d="M 120.99513854157772 99.54816195383933 l 32.702992244471815 -0.7038036967504195 a53.71056467543083,53.71056467543083 0 0,0 0.01193651538303401,0.9244962709174646 l -32.710261766972565 0.1407711677724922" fill="#50be98" stroke="none" /><path d="M 120.99824983174949 100.27111621757518 l 27.479561815373525 0.35479884846130727 a48.481852189905325,48.481852189905325 0 0,0 -0.017956609868943697,0.8343731014661956 l -27.469383142819574 -0.8277617657176177" fill="#64c4a0" stroke="none" /><path d="M 120.9904718944345 100.63252640178507 l 34.37318809570027 1.0358008668599517 a55.38879095429467,55.38879095429467 0 0,0 -0.036920235110033096,0.9527472168131444 l -34.350265727739036 -1.6273253306871023" fill="#4abc95" stroke="none" /><path d="M 120.9764740272857 100.99374915477107 l 44.9971643844502 2.1317164179249875 a66.04763054287855,66.04763054287855 0 0,0 -0.06357445850018331,1.1351646634263441 l -44.95380357506249 -2.905952797686755" fill="#379c7e" stroke="none" /><path d="M 120.92983693683757 101.71520430193887 l 46.042208317282444 3.7731681338412213 a67.1965555479872,67.1965555479872 0 0,0 -0.1043959406449055,1.1520005058431049 l -45.97043778036046 -4.565150028232897" fill="#36987c" stroke="none" /><path d="M 120.89721153311464 102.0752229133903 l 28.374111690329272 2.817725543599867 a49.51367726994074,49.51367726994074 0 0,0 -0.09152414265898953,0.847399891801243 l -28.32140524616923 -3.3057217572859012" fill="#60c39f" stroke="none" /><path d="M 120.81339534386255 102.79330883721812 l 30.65359325292594 4.1139348727710905 a51.92842122471221,51.92842122471221 0 0,0 -0.12652223577009813,0.8848962222938992 l -30.57823696613924 -4.640976567045398" fill="#57c09b" stroke="none" /><path d="M 120.76222939487914 103.15116336523771 l 30.670455715160504 4.654972961073081 a52.02169606975001,52.02169606975001 0 0,0 -0.14199011208896797,0.8841725635181498 l -30.58578384871025 -5.1822247542844355" fill="#57c09b" stroke="none" /><path d="M 120.70491114924044 103.5080841355445 l 51.898554295315435 8.793299989011059 a73.63821864995572,73.63821864995572 0 0,0 -0.22250509300687593,1.2479267260441267 l -51.73950275996937 -9.685345465788405" fill="#2d816c" stroke="none" /><path d="M 120.5718875245553 104.21870165774334 l 44.73811720914644 9.174499374899812 a66.66914242898986,66.66914242898986 0 0,0 -0.2402183213955493,1.1222200247630028 l -44.57356484902645 -9.943233219078984" fill="#36997d" stroke="none" /><path d="M 120.49622156327973 104.57218783832717 l 30.67770461670722 6.843418799082173 a52.431734622982084,52.431734622982084 0 0,0 -0.204082872160095,0.8791836719206865 l -30.55536117861657 -7.370471128351425" fill="#55c09a" stroke="none" /><path d="M 120.32669344350535 105.2749913415812 l 30.156101432320746 7.825826389001924 a52.15499979565425,52.15499979565425 0 0,0 -0.23298861234402574,0.8670373004233489 l -30.01692474363494 -8.343754622600821" fill="#56c09a" stroke="none" /><path d="M 120.23288151984713 105.62410040840565 l 37.45519406214344 10.411357967730822 a59.875286969552484,59.875286969552484 0 0,0 -0.28457116705329166,0.9906295647423297 l -37.270430258204044 -11.054545007977735" fill="#40b18d" stroke="none" /><path d="M 120.13307415673323 105.97154293290107 l 54.78060135919486 16.2481253662481 a78.13944227232479,78.13944227232479 0 0,0 -0.3935743335102153,1.2862236939699179 l -54.492800253178515 -17.188676032770072" fill="#277260" stroke="none" /><path d="M 119.9155931802556 106.66101706037122 l 35.9462280897297 12.022661659862838 a58.9035052108167,58.9035052108167 0 0,0 -0.32988534773215367,0.9588012364180373 l -35.73395191105432 -12.639635599370175" fill="#42b48f" stroke="none" /><path d="M 119.79798401119884 107.00284435728193 l 32.388147903492374 11.456174460010077 a55.35456385804781,55.35456385804781 0 0,0 -0.32547360376694384,0.8955635722160256 l -32.18615003872021 -12.011985829232234" fill="#4abc96" stroke="none" /><path d="M 119.54520255179757 107.68017299344265 l 30.840388552877798 12.118550250035957 a54.13591444724474,54.13591444724474 0 0,0 -0.3482676436480106,0.8643717303127869 l -30.627218294972394 -12.647621348191558" fill="#4fbe97" stroke="none" /><path d="M 119.41010516605496 108.01547362559984 l 31.777498067262552 13.122633569813987 a55.38041441318711,55.38041441318711 0 0,0 -0.3714417633933675,0.8779786065387979 l -31.546905322676874 -13.667686702018948" fill="#4abc95" stroke="none" /><path d="M 119.26925614724726 108.34839909993367 l 53.660130948281 23.248234674328522 a79.47982616987943,79.47982616987943 0 0,0 -0.5546893861525961,1.250678132052794 l -53.25200047739713 -24.168461142874005" fill="#256d5c" stroke="none" /><path d="M 118.97047184881838 109.00673069616215 l 47.91065867328367 22.746845918484087 a74.03631033308358,74.03631033308358 0 0,0 -0.5564947846828391,1.1465440847571893 l -47.512010631986115 -23.568178959206552" fill="#2c806b" stroke="none" /><path d="M 118.81262510543309 109.33194174019688 l 22.815525269069777 11.317567399004805 a46.46832395613378,46.46832395613378 0 0,0 -0.36161501493876014,0.71350073089953 l -22.617331584344747 -11.708622341607029" fill="#6bc7a4" stroke="none" /><line stroke="#D7F2E5" stroke-width="0.3" x1="174.80103733775053" x2="179.2010983576182" y1="140.37084112569926" y2="142.7455964860345" /><path d="M 175.68104954172406 140.8457921977663 a86.0,86.0 0 0,1 -30.038265399797805,32.042727171017184" fill="none" id="id17" stroke="none" /><text fill="#D7F2E5" style="font-size:6.75px; font-family:Arial;" text-anchor="middle"><textPath startOffset="22.206326154141568" xlink:href="#id17">May</textPath></text><path d="M 118.48025628344425 109.97397251340804 l 25.419719026000752 13.71926746984672 a49.88564375723725,49.88564375723725 0 0,0 -0.4143444333790575,0.7521555010593239 l -25.17979818317019 -14.154793489303849" fill="#5ec39e" stroke="none" /><path d="M 118.30583269289576 110.29060199501025 l 33.260050839652095 18.697097874028678 a59.155110414821884,59.155110414821884 0 0,0 -0.5066156440710142,0.883327078197535 l -32.9332831994287 -19.266844798084527" fill="#41b38e" stroke="none" /><path d="M 118.12598468904814 110.60418214915192 l 43.34285557617671 25.356720932897318 a71.21520114433622,71.21520114433622 0 0,0 -0.6281151044251696,1.0527570441298884 l -42.899959596053314 -26.099040070913308" fill="#308a72" stroke="none" /><path d="M 117.55443506779139 111.5257021239791 l 31.669152659197355 20.79299155222846 a58.88513861453579,58.88513861453579 0 0,0 -0.5636061904276632,0.8425147835972486 l -31.30654336335897 -21.335043250031518" fill="#42b48f" stroke="none" /><path d="M 117.35343817320211 111.8261652097733 l 28.791761732186703 19.6212489724991 a55.84191376609223,55.84191376609223 0 0,0 -0.5481524498129748,0.789654487097145 l -28.44974837521159 -20.113944721783263" fill="#48bc95" stroke="none" /><path d="M 117.14729908036423 112.12312394758627 l 28.535834100395096 20.174807246640754 a55.94734146175328,55.94734146175328 0 0,0 -0.5627242418849797,0.7815747547251904 l -28.184330066134514 -20.663015606817076" fill="#48bc95" stroke="none" /><path d="M 116.93607887273984 112.41649034213515 l 27.774652536135314 20.36266526404603 a55.43935917171855,55.43935917171855 0 0,0 -0.57086365726325,0.764765158109714 l -27.42002761217697 -20.83774330166506" fill="#4abc95" stroke="none" /><path d="M 116.71984013943494 112.70617746262583 l 27.35882896564522 20.79123562833684 a55.362494108030795,55.362494108030795 0 0,0 -0.583133632309584,0.7537788269648283 l -26.99688851611757 -21.25909244941492" fill="#4abc96" stroke="none" /><path d="M 116.27256486870786 113.27417163493432 l 26.634822449389087 21.72707299136839 a55.37265581363667,55.37265581363667 0 0,0 -0.6088460820898451,0.7333943275369892 l -26.2568803674057 -22.182328576019152" fill="#4abc95" stroke="none" /><path d="M 116.0416608686014 113.55231037782055 l 21.68127988238255 18.316771359352575 a49.382776650091955,49.382776650091955 0 0,0 -0.5541629150374959,0.6446166660372176 l -21.36277445777428 -18.68726512455132" fill="#60c39f" stroke="none" /><path d="M 115.56566222782051 114.09645910891815 l 12.736034554030907 11.53391276728246 a38.18248293712962,38.18248293712962 0 0,0 -0.4453779212900931,0.4833697703526359 l -12.535610224745092 -11.75143379243643" fill="#89d1b3" stroke="none" /><line stroke="#D7F2E5" stroke-width="0.3" x1="143.8653032363475" x2="146.44561519142675" y1="172.8068346515853" y2="177.08958963109032" /><path d="M 144.38136562736335 173.6633856474863 a86.0,86.0 0 0,1 -40.68145358897372,12.25698825130547" fill="none" id="id18" stroke="none" /><text fill="#D7F2E5" style="font-size:6.75px; font-family:Arial;" text-anchor="middle"><textPath startOffset="21.466115282336833" xlink:href="#id18">June</textPath></text><line stroke="#D7F2E5" stroke-width="0.3" x1="102.19456741930631" x2="102.32365962044197" y1="184.97166512339345" y2="189.96999836594603" /><path d="M 102.22038585953345 185.97133177190398 a86.0,86.0 0 0,1 -42.740103519485714,-10.115201625700543" fill="none" id="id19" stroke="none" /><text fill="#D7F2E5" style="font-size:6.75px; font-family:Arial;" text-anchor="middle"><textPath startOffset="22.20632615414155" xlink:href="#id19">July</textPath></text><line stroke="#D7F2E5" stroke-width="0.3" x1="58.666819895761336" x2="56.23545636021788" y1="174.27360380694188" y2="178.64263932499728" /><path d="M 58.180547188652646 175.14741091055294 a86.0,86.0 0 0,1 -31.652253787137756,-30.449443065178592" fill="none" id="id20" stroke="none" /><text fill="#D7F2E5" style="font-size:6.75px; font-family:Arial;" text-anchor="middle"><textPath startOffset="22.20632615414155" xlink:href="#id20">August</textPath></text><line stroke="#D7F2E5" stroke-width="0.3" x1="26.63291911575756" x2="22.317208475507996" y1="142.92168965132927" y2="145.44649492493687" /><path d="M 25.769776987707644 143.4266507060508 a86.0,86.0 0 0,1 -11.730757126820373,-40.83630448921669" fill="none" id="id21" stroke="none" /><text fill="#D7F2E5" style="font-size:6.75px; font-family:Arial;" text-anchor="middle"><textPath startOffset="21.46611528233685" xlink:href="#id21">September</textPath></text><line stroke="#D7F2E5" stroke-width="0.3" x1="15.007084014347285" x2="10.007500721073583" y1="101.09737516637583" y2="101.16192664675087" /><path d="M 14.007167355692545 101.11028546245083 a86.0,86.0 0 0,1 10.666146001902534,-42.60595125391555" fill="none" id="id22" stroke="none" /><text fill="#D7F2E5" style="font-size:6.75px; font-family:Arial;" text-anchor="middle"><textPath startOffset="22.20632615414155" xlink:href="#id22">October</textPath></text><line stroke="#D7F2E5" stroke-width="0.3" x1="26.266209847984243" x2="21.928928074336255" y1="57.711370442889674" y2="55.22380399835377" /><path d="M 25.398753493254645 57.213857153982495 a86.0,86.0 0 0,1 29.58750427330803,-30.492523968695096" fill="none" id="id23" stroke="none" /><text fill="#D7F2E5" style="font-size:6.75px; font-family:Arial;" text-anchor="middle"><textPath startOffset="21.46611528233685" xlink:href="#id23">November</textPath></text><line stroke="#D7F2E5" stroke-width="0.3" x1="56.762969772571076" x2="54.21961505331055" y1="26.818313649435495" y2="22.513508569990535" /><path d="M 56.25429882871897 25.957352633546506 a86.0,86.0 0 0,1 42.265352541879196,-11.944610805530505" fill="none" id="id24" stroke="none" /><text fill="#D7F2E5" style="font-size:6.75px; font-family:Arial;" text-anchor="middle"><textPath startOffset="22.20632615414155" xlink:href="#id24">December</textPath></text></svg>