<?xml version="1.0" encoding="utf-8" ?>
<svg baseProfile="full" height="300mm" version="1.1" viewBox="0,0,200,300" width="200mm" xmlns="http://www.w3.org/2000/svg" xmlns:ev="http://www.w3.org/2001/xml-events" xmlns:xlink="http://www.w3.org/1999/xlink"><defs /><rect fill="#222222" height="300" width="200" x="0" y="0" /><text fill="#555555" style="font-size:6px; font-family:Arial;" x="11" y="19">Running for 363 Days</text><text fill="#555555" style="font-size:6px; font-family:Arial;" x="11" y="39">Races</text><text fill="#555555" style="font-size:8px; font-family:Arial;" x="11" y="59">1</text><text fill="#FFFFFF" style="font-size:10px; font-family:Arial; font-weight:bold;" x="23" y="59">10K</text><text fill="#555555" style="font-size:6px; font-family:Arial;" x="49" y="59">35x</text><text fill="#555555" style="font-size:6px; font-family:Arial;" x="11" y="97">Stats</text><text fill="#555555" style="font-size:5px; font-family:Arial;" x="11" y="103">Distance</text><text fill="#FFFFFF" style="font-size:10px; font-family:Arial; font-weight:bold;" x="11" y="114">1170</text><text fill="#555555" style="font-size:6px; font-family:Arial;" x="35" y="114">km</text><text fill="#555555" style="font-size:5px; font-family:Arial;" x="53" y="103">Runs</text><text fill="#FFFFFF" style="font-size:10px; font-family:Arial; font-weight:bold;" x="53" y="114">158</text><text fill="#555555" style="font-size:5px; font-family:Arial;" x="11" y="131">Avg Pace</text><text fill="#FFFFFF" style="font-size:10px; font-family:Arial; font-weight:bold;" x="11" y="142">5'47"</text><text fill="#555555" style="font-size:5px; font-family:Arial;" x="53" y="131">Streak</text><text fill="#FFFFFF" style="font-size:10px; font-family:Arial; font-weight:bold;" x="53" y="142">15</text><text fill="#555555" style="font-size:6px; font-family:Arial;" x="65" y="142">d</text><text fill="#555555" style="font-size:5px; font-family:Arial;" x="11" y="159">Time</text><text fill="#FFFFFF" style="font-size:10px; font-family:Arial; font-weight:bold;" x="11" y="170">113</text><text fill="#555555" style="font-size:6px; font-family:Arial;" x="29" y="170">h</text><text fill="#555555" style="font-size:5px; font-family:Arial;" x="53" y="159">Longest</text><text fill="#FFFFFF" style="font-size:10px; font-family:Arial; font-weight:bold;" x="53" y="170">14.3</text><text fill="#555555" style="font-size:5px; font-family:Arial;" x="11" y="252.0645161290322">Runner</text><text fill="#FFFFFF" style="font-size:8px; font-family:Arial; font-weight:bold;" x="11" y="262.0645161290322">adamkadev</text><text fill="#555555" style="font-size:7px; font-family:Arial;" x="11" y="285.5806451612903">running_page/2025</text><circle cx="85.41666666666667" cy="17.419354838709676" fill="#555555" r="3.3125"><title>2025-01-01</title></circle><circle cx="85.41666666666667" cy="26.25806451612903" fill="#555555" r="3.3125"><title>2025-01-02</title></circle><circle cx="85.41666666666667" cy="35.096774193548384" fill="#555555" r="3.3125"><title>2025-01-03</title></circle><circle cx="85.41666666666667" cy="43.935483870967744" fill="#555555" r="3.3125"><title>2025-01-04</title></circle><circle cx="85.41666666666667" cy="52.774193548387096" fill="#555555" r="3.3125"><title>2025-01-05</title></circle><circle cx="85.41666666666667" cy="61.61290322580645" fill="#555555" r="3.3125"><title>2025-01-06</title></circle><circle cx="85.41666666666667" cy="70.45161290322581" fill="#555555" r="3.3125"><title>2025-01-07</title></circle><circle cx="85.41666666666667" cy="79.29032258064517" fill="#555555" r="3.3125"><title>2025-01-08</title></circle><circle cx="85.41666666666667" cy="88.12903225806451" fill="#555555" r="3.3125"><title>2025-01-09</title></circle><circle cx="85.41666666666667" cy="96.96774193548387" fill="#555555" r="3.3125"><title>2025-01-10</title></circle><circle cx="85.41666666666667" cy="105.80645161290322" fill="#555555" r="3.3125"><title>2025-01-11</title></circle><circle cx="85.41666666666667" cy="114.64516129032258" fill="#555555" r="3.3125"><title>2025-01-12</title></circle><circle cx="85.41666666666667" cy="123.48387096774194" fill="#555555" r="3.3125"><title>2025-01-13</title></circle><circle cx="85.41666666666667" cy="132.32258064516128" fill="#555555" r="3.3125"><title>2025-01-14</title></circle><circle cx="85.41666666666667" cy="141.16129032258064" fill="#555555" r="3.3125"><title>2025-01-15</title></circle><circle cx="85.41666666666667" cy="149.99999999999997" fill="#555555" r="3.3125"><title>2025-01-16</title></circle><circle cx="85.41666666666667" cy="158.83870967741933" fill="#555555" r="3.3125"><title>2025-01-17</title></circle><circle cx="85.41666666666667" cy="167.6774193548387" fill="#555555" r="3.3125"><title>2025-01-18</title></circle><circle cx="85.41666666666667" cy="176.51612903225805" fill="#555555" r="3.3125"><title>2025-01-19</title></circle><circle cx="85.41666666666667" cy="185.35483870967738" fill="#555555" r="3.3125"><title>2025-01-20</title></circle><circle cx="85.41666666666667" cy="194.19354838709674" fill="#555555" r="3.3125"><title>2025-01-21</title></circle><circle cx="85.41666666666667" cy="203.0322580645161" fill="#555555" r="3.3125"><title>2025-01-22</title></circle><circle cx="85.41666666666667" cy="211.87096774193546" fill="#555555" r="3.3125"><title>2025-01-23</title></circle><circle cx="85.41666666666667" cy="220.70967741935482" fill="#555555" r="3.3125"><title>2025-01-24</title></circle><circle cx="85.41666666666667" cy="229.54838709677418" fill="#555555" r="3.3125"><title>2025-01-25</title></circle><circle cx="85.41666666666667" cy="238.3870967741935" fill="#555555" r="3.3125"><title>2025-01-26</title></circle><circle cx="85.41666666666667" cy="247.22580645161287" fill="#555555" r="3.3125"><title>2025-01-27</title></circle><circle cx="85.41666666666667" cy="256.06451612903226" fill="#555555" r="3.3125"><title>2025-01-28</title></circle><circle cx="85.41666666666667" cy="264.90322580645164" fill="#555555" r="3.3125"><title>2025-01-29</title></circle><circle cx="85.41666666666667" cy="273.741935483871" fill="#555555" r="3.3125"><title>2025-01-30</title></circle><circle cx="85.41666666666667" cy="282.5806451612903" fill="#555555" r="3.3125"><title>2025-01-31</title></circle><circle cx="94.25" cy="17.419354838709676" fill="#555555" r="3.3125"><title>2025-02-01</title></circle><circle cx="94.25" cy="26.25806451612903" fill="#555555" r="3.3125"><title>2025-02-02</title></circle><circle cx="94.25" cy="35.096774193548384" fill="#555555" r="3.3125"><title>2025-02-03</title></circle><circle cx="94.25" cy="43.935483870967744" fill="#555555" r="3.3125"><title>2025-02-04</title></circle><circle cx="94.25" cy="52.774193548387096" fill="#555555" r="3.3125"><title>2025-02-05</title></circle><circle cx="94.25" cy="61.61290322580645" fill="#555555" r="3.3125"><title>2025-02-06</title></circle><circle cx="94.25" cy="70.45161290322581" fill="#555555" r="3.3125"><title>2025-02-07</title></circle><circle cx="94.25" cy="79.29032258064517" fill="#555555" r="3.3125"><title>2025-02-08</title></circle><circle cx="94.25" cy="88.12903225806451" fill="#555555" r="3.3125"><title>2025-02-09</title></circle><circle cx="94.25" cy="96.96774193548387" fill="#555555" r="3.3125"><title>2025-02-10</title></circle><circle cx="94.25" cy="105.80645161290322" fill="#555555" r="3.3125"><title>2025-02-11</title></circle><circle cx="94.25" cy="114.64516129032258" fill="#555555" r="3.3125"><title>2025-02-12</title></circle><circle cx="94.25" cy="123.48387096774194" fill="#555555" r="3.3125"><title>2025-02-13</title></circle><circle cx="94.25" cy="132.32258064516128" fill="#555555" r="3.3125"><title>2025-02-14</title></circle><circle cx="94.25" cy="141.16129032258064" fill="#555555" r="3.3125"><title>2025-02-15</title></circle><circle cx="94.25" cy="149.99999999999997" fill="#555555" r="3.3125"><title>2025-02-16</title></circle><circle cx="94.25" cy="158.83870967741933" fill="#555555" r="3.3125"><title>2025-02-17</title></circle><circle cx="94.25" cy="167.6774193548387" fill="#555555" r="3.3125"><title>2025-02-18</title></circle><circle cx="94.25" cy="176.51612903225805" fill="#555555" r="3.3125"><title>2025-02-19</title></circle><circle cx="94.25" cy="185.35483870967738" fill="#555555" r="3.3125"><title>2025-02-20</title></circle><circle cx="94.25" cy="194.19354838709674" fill="#555555" r="3.3125"><title>2025-02-21</title></circle><circle cx="94.25" cy="203.0322580645161" fill="#555555" r="3.3125"><title>2025-02-22</title></circle><circle cx="94.25" cy="211.87096774193546" fill="#555555" r="3.3125"><title>2025-02-23</title></circle><circle cx="94.25" cy="220.70967741935482" fill="#555555" r="3.3125"><title>2025-02-24</title></circle><circle cx="94.25" cy="229.54838709677418" fill="#555555" r="3.3125"><title>2025-02-25</title></circle><circle cx="94.25" cy="238.3870967741935" fill="#555555" r="3.3125"><title>2025-02-26</title></circle><circle cx="94.25" cy="247.22580645161287" fill="#555555" r="3.3125"><title>2025-02-27</title></circle><circle cx="94.25" cy="256.06451612903226" fill="#555555" r="3.3125"><title>2025-02-28</title></circle><circle cx="103.08333333333334" cy="17.419354838709676" fill="#555555" r="3.3125"><title>2025-03-01</title></circle><circle cx="103.08333333333334" cy="26.25806451612903" fill="#555555" r="3.3125"><title>2025-03-02</title></circle><circle cx="103.08333333333334" cy="35.096774193548384" fill="#555555" r="3.3125"><title>2025-03-03</title></circle><circle cx="103.08333333333334" cy="43.935483870967744" fill="#555555" r="3.3125"><title>2025-03-04</title></circle><circle cx="103.08333333333334" cy="52.774193548387096" fill="#555555" r="3.3125"><title>2025-03-05</title></circle><circle cx="103.08333333333334" cy="61.61290322580645" fill="#555555" r="3.3125"><title>2025-03-06</title></circle><circle cx="103.08333333333334" cy="70.45161290322581" fill="#555555" r="3.3125"><title>2025-03-07</title></circle><circle cx="103.08333333333334" cy="79.29032258064517" fill="#555555" r="3.3125"><title>2025-03-08</title></circle><circle cx="103.08333333333334" cy="88.12903225806451" fill="#555555" r="3.3125"><title>2025-03-09</title></circle><circle cx="103.08333333333334" cy="96.96774193548387" fill="#555555" r="3.3125"><title>2025-03-10</title></circle><circle cx="103.08333333333334" cy="105.80645161290322" fill="#555555" r="3.3125"><title>2025-03-11</title></circle><circle cx="103.08333333333334" cy="114.64516129032258" fill="#555555" r="3.3125"><title>2025-03-12</title></circle><circle cx="103.08333333333334" cy="123.48387096774194" fill="#555555" r="3.3125"><title>2025-03-13</title></circle><circle cx="103.08333333333334" cy="132.32258064516128" fill="#555555" r="3.3125"><title>2025-03-14</title></circle><circle cx="103.08333333333334" cy="141.16129032258064" fill="#555555" r="3.3125"><title>2025-03-15</title></circle><circle cx="103.08333333333334" cy="149.99999999999997" fill="#555555" r="3.3125"><title>2025-03-16</title></circle><circle cx="103.08333333333334" cy="158.83870967741933" fill="#555555" r="3.3125"><title>2025-03-17</title></circle><circle cx="103.08333333333334" cy="167.6774193548387" fill="#555555" r="3.3125"><title>2025-03-18</title></circle><circle cx="103.08333333333334" cy="176.51612903225805" fill="#555555" r="3.3125"><title>2025-03-19</title></circle><circle cx="103.08333333333334" cy="185.35483870967738" fill="#555555" r="3.3125"><title>2025-03-20</title></circle><circle cx="103.08333333333334" cy="194.19354838709674" fill="#555555" r="3.3125"><title>2025-03-21</title></circle><circle cx="103.08333333333334" cy="203.0322580645161" fill="#555555" r="3.3125"><title>2025-03-22</title></circle><circle cx="103.08333333333334" cy="211.87096774193546" fill="#555555" r="3.3125"><title>2025-03-23</title></circle><circle cx="103.08333333333334" cy="220.70967741935482" fill="#555555" r="3.3125"><title>2025-03-24</title></circle><circle cx="103.08333333333334" cy="229.54838709677418" fill="#555555" r="3.3125"><title>2025-03-25</title></circle><circle cx="103.08333333333334" cy="238.3870967741935" fill="#555555" r="3.3125"><title>2025-03-26</title></circle><circle cx="103.08333333333334" cy="247.22580645161287" fill="#555555" r="3.3125"><title>2025-03-27</title></circle><circle cx="103.08333333333334" cy="256.06451612903226" fill="#555555" r="3.3125"><title>2025-03-28</title></circle><circle cx="103.08333333333334" cy="264.90322580645164" fill="#555555" r="3.3125"><title>2025-03-29</title></circle><circle cx="103.08333333333334" cy="273.741935483871" fill="#555555" r="3.3125"><title>2025-03-30</title></circle><circle cx="103.08333333333334" cy="282.5806451612903" fill="#555555" r="3.3125"><title>2025-03-31</title></circle><circle cx="111.91666666666667" cy="17.419354838709676" fill="#555555" r="3.3125"><title>2025-04-01</title></circle><circle cx="111.91666666666667" cy="26.25806451612903" fill="#555555" r="3.3125"><title>2025-04-02</title></circle><circle cx="111.91666666666667" cy="35.096774193548384" fill="#555555" r="3.3125"><title>2025-04-03</title></circle><circle cx="111.91666666666667" cy="43.935483870967744" fill="#555555" r="3.3125"><title>2025-04-04</title></circle><circle cx="111.91666666666667" cy="52.774193548387096" fill="#555555" r="3.3125"><title>2025-04-05</title></circle><circle cx="111.91666666666667" cy="61.61290322580645" fill="#555555" r="3.3125"><title>2025-04-06</title></circle><circle cx="111.91666666666667" cy="70.45161290322581" fill="#555555" r="3.3125"><title>2025-04-07</title></circle><circle cx="111.91666666666667" cy="79.29032258064517" fill="#555555" r="3.3125"><title>2025-04-08</title></circle><circle cx="111.91666666666667" cy="88.12903225806451" fill="#555555" r="3.3125"><title>2025-04-09</title></circle><circle cx="111.91666666666667" cy="96.96774193548387" fill="#555555" r="3.3125"><title>2025-04-10</title></circle><circle cx="111.91666666666667" cy="105.80645161290322" fill="#555555" r="3.3125"><title>2025-04-11</title></circle><circle cx="111.91666666666667" cy="114.64516129032258" fill="#555555" r="3.3125"><title>2025-04-12</title></circle><circle cx="111.91666666666667" cy="123.48387096774194" fill="#555555" r="3.3125"><title>2025-04-13</title></circle><circle cx="111.91666666666667" cy="132.32258064516128" fill="#555555" r="3.3125"><title>2025-04-14</title></circle><circle cx="111.91666666666667" cy="141.16129032258064" fill="#555555" r="3.3125"><title>2025-04-15</title></circle><circle cx="111.91666666666667" cy="149.99999999999997" fill="#555555" r="3.3125"><title>2025-04-16</title></circle><circle cx="111.91666666666667" cy="158.83870967741933" fill="#555555" r="3.3125"><title>2025-04-17</title></circle><circle cx="111.91666666666667" cy="167.6774193548387" fill="#555555" r="3.3125"><title>2025-04-18</title></circle><circle cx="111.91666666666667" cy="176.51612903225805" fill="#555555" r="3.3125"><title>2025-04-19</title></circle><circle cx="111.91666666666667" cy="185.35483870967738" fill="#555555" r="3.3125"><title>2025-04-20</title></circle><circle cx="111.91666666666667" cy="194.19354838709674" fill="#555555" r="3.3125"><title>2025-04-21</title></circle><circle cx="111.91666666666667" cy="203.0322580645161" fill="#555555" r="3.3125"><title>2025-04-22</title></circle><circle cx="111.91666666666667" cy="211.87096774193546" fill="#555555" r="3.3125"><title>2025-04-23</title></circle><circle cx="111.91666666666667" cy="220.70967741935482" fill="#555555" r="3.3125"><title>2025-04-24</title></circle><circle cx="111.91666666666667" cy="229.54838709677418" fill="#555555" r="3.3125"><title>2025-04-25</title></circle><circle cx="111.91666666666667" cy="238.3870967741935" fill="#555555" r="3.3125"><title>2025-04-26</title></circle><circle cx="111.91666666666667" cy="247.22580645161287" fill="#555555" r="3.3125"><title>2025-04-27</title></circle><circle cx="111.91666666666667" cy="256.06451612903226" fill="#555555" r="3.3125"><title>2025-04-28</title></circle><circle cx="111.91666666666667" cy="264.90322580645164" fill="#555555" r="3.3125"><title>2025-04-29</title></circle><circle cx="111.91666666666667" cy="273.741935483871" fill="#555555" r="3.3125"><title>2025-04-30</title></circle><circle cx="120.75000000000001" cy="17.419354838709676" fill="#555555" r="3.3125"><title>2025-05-01</title></circle><circle cx="120.75000000000001" cy="26.25806451612903" fill="#555555" r="3.3125"><title>2025-05-02</title></circle><circle cx="120.75000000000001" cy="35.096774193548384" fill="#555555" r="3.3125"><title>2025-05-03</title></circle><circle cx="120.75000000000001" cy="43.935483870967744" fill="#555555" r="3.3125"><title>2025-05-04</title></circle><circle cx="120.75000000000001" cy="52.774193548387096" fill="#555555" r="3.3125"><title>2025-05-05</title></circle><circle cx="120.75000000000001" cy="61.61290322580645" fill="#555555" r="3.3125"><title>2025-05-06</title></circle><circle cx="120.75000000000001" cy="70.45161290322581" fill="#555555" r="3.3125"><title>2025-05-07</title></circle><circle cx="120.75000000000001" cy="79.29032258064517" fill="#555555" r="3.3125"><title>2025-05-08</title></circle><circle cx="120.75000000000001" cy="88.12903225806451" fill="#555555" r="3.3125"><title>2025-05-09</title></circle><circle cx="120.75000000000001" cy="96.96774193548387" fill="#555555" r="3.3125"><title>2025-05-10</title></circle><circle cx="120.75000000000001" cy="105.80645161290322" fill="#555555" r="3.3125"><title>2025-05-11</title></circle><circle cx="120.75000000000001" cy="114.64516129032258" fill="#555555" r="3.3125"><title>2025-05-12</title></circle><circle cx="120.75000000000001" cy="123.48387096774194" fill="#b9acb4" r="3.3125"><title>2025-05-13: 6 km</title></circle><circle cx="120.75000000000001" cy="132.32258064516128" fill="#555555" r="3.3125"><title>2025-05-14</title></circle><circle cx="120.75000000000001" cy="141.16129032258064" fill="#E18ABF" r="3.3125"><title>2025-05-15: 13 km</title></circle><circle cx="120.75000000000001" cy="149.99999999999997" fill="#555555" r="3.3125"><title>2025-05-16</title></circle><circle cx="120.75000000000001" cy="158.83870967741933" fill="#555555" r="3.3125"><title>2025-05-17</title></circle><circle cx="120.75000000000001" cy="167.6774193548387" fill="#dfcdd9" r="3.3125"><title>2025-05-18: 8 km</title></circle><circle cx="120.75000000000001" cy="176.51612903225805" fill="#555555" r="3.3125"><title>2025-05-19</title></circle><circle cx="120.75000000000001" cy="185.35483870967738" fill="#d0c1cb" r="3.3125"><title>2025-05-20: 7 km</title></circle><circle cx="120.75000000000001" cy="194.19354838709674" fill="#555555" r="3.3125"><title>2025-05-21</title></circle><circle cx="120.75000000000001" cy="203.0322580645161" fill="#555555" r="3.3125"><title>2025-05-22</title></circle><circle cx="120.75000000000001" cy="211.87096774193546" fill="#aea3aa" r="3.3125"><title>2025-05-23: 5 km</title></circle><circle cx="120.75000000000001" cy="220.70967741935482" fill="#555555" r="3.3125"><title>2025-05-24</title></circle><circle cx="120.75000000000001" cy="229.54838709677418" fill="#E18ABF" r="3.3125"><title>2025-05-25: 10 km</title></circle><circle cx="120.75000000000001" cy="238.3870967741935" fill="#555555" r="3.3125"><title>2025-05-26</title></circle><circle cx="120.75000000000001" cy="247.22580645161287" fill="#555555" r="3.3125"><title>2025-05-27</title></circle><circle cx="120.75000000000001" cy="256.06451612903226" fill="#ecd9e6" r="3.3125"><title>2025-05-28: 9 km</title></circle><circle cx="120.75000000000001" cy="264.90322580645164" fill="#8e878c" r="3.3125"><title>2025-05-29: 3 km</title></circle><circle cx="120.75000000000001" cy="273.741935483871" fill="#E18ABF" r="3.3125"><title>2025-05-30: 19 km</title></circle><circle cx="120.75000000000001" cy="282.5806451612903" fill="#555555" r="3.3125"><title>2025-05-31</title></circle><circle cx="129.58333333333334" cy="17.419354838709676" fill="#E18ABF" r="3.3125"><title>2025-06-01: 10 km</title></circle><circle cx="129.58333333333334" cy="26.25806451612903" fill="#555555" r="3.3125"><title>2025-06-02</title></circle><circle cx="129.58333333333334" cy="35.096774193548384" fill="#555555" r="3.3125"><title>2025-06-03</title></circle><circle cx="129.58333333333334" cy="43.935483870967744" fill="#d5c5cf" r="3.3125"><title>2025-06-04: 8 km</title></circle><circle cx="129.58333333333334" cy="52.774193548387096" fill="#555555" r="3.3125"><title>2025-06-05</title></circle><circle cx="129.58333333333334" cy="61.61290322580645" fill="#555555" r="3.3125"><title>2025-06-06</title></circle><circle cx="129.58333333333334" cy="70.45161290322581" fill="#d7c7d1" r="3.3125"><title>2025-06-07: 8 km</title></circle><circle cx="129.58333333333334" cy="79.29032258064517" fill="#555555" r="3.3125"><title>2025-06-08</title></circle><circle cx="129.58333333333334" cy="88.12903225806451" fill="#E18ABF" r="3.3125"><title>2025-06-09: 13 km</title></circle><circle cx="129.58333333333334" cy="96.96774193548387" fill="#555555" r="3.3125"><title>2025-06-10</title></circle><circle cx="129.58333333333334" cy="105.80645161290322" fill="#cdbec8" r="3.3125"><title>2025-06-11: 7 km</title></circle><circle cx="129.58333333333334" cy="114.64516129032258" fill="#555555" r="3.3125"><title>2025-06-12</title></circle><circle cx="129.58333333333334" cy="123.48387096774194" fill="#555555" r="3.3125"><title>2025-06-13</title></circle><circle cx="129.58333333333334" cy="132.32258064516128" fill="#ccbdc7" r="3.3125"><title>2025-06-14: 7 km</title></circle><circle cx="129.58333333333334" cy="141.16129032258064" fill="#555555" r="3.3125"><title>2025-06-15</title></circle><circle cx="129.58333333333334" cy="149.99999999999997" fill="#555555" r="3.3125"><title>2025-06-16</title></circle><circle cx="129.58333333333334" cy="158.83870967741933" fill="#E18ABF" r="3.3125"><title>2025-06-17: 10 km</title></circle><circle cx="129.58333333333334" cy="167.6774193548387" fill="#555555" r="3.3125"><title>2025-06-18</title></circle><circle cx="129.58333333333334" cy="176.51612903225805" fill="#555555" r="3.3125"><title>2025-06-19</title></circle><circle cx="129.58333333333334" cy="185.35483870967738" fill="#dbcad5" r="3.3125"><title>2025-06-20: 8 km</title></circle><circle cx="129.58333333333334" cy="194.19354838709674" fill="#555555" r="3.3125"><title>2025-06-21</title></circle><circle cx="129.58333333333334" cy="203.0322580645161" fill="#E18ABF" r="3.3125"><title>2025-06-22: 10 km</title></circle><circle cx="129.58333333333334" cy="211.87096774193546" fill="#555555" r="3.3125"><title>2025-06-23</title></circle><circle cx="129.58333333333334" cy="220.70967741935482" fill="#ddccd7" r="3.3125"><title>2025-06-24: 8 km</title></circle><circle cx="129.58333333333334" cy="229.54838709677418" fill="#555555" r="3.3125"><title>2025-06-25</title></circle><circle cx="129.58333333333334" cy="238.3870967741935" fill="#E18ABF" r="3.3125"><title>2025-06-26: 10 km</title></circle><circle cx="129.58333333333334" cy="247.22580645161287" fill="#555555" r="3.3125"><title>2025-06-27</title></circle><circle cx="129.58333333333334" cy="256.06451612903226" fill="#b1a6ad" r="3.3125"><title>2025-06-28: 5 km</title></circle><circle cx="129.58333333333334" cy="264.90322580645164" fill="#555555" r="3.3125"><title>2025-06-29</title></circle><circle cx="129.58333333333334" cy="273.741935483871" fill="#555555" r="3.3125"><title>2025-06-30</title></circle><circle cx="138.41666666666666" cy="17.419354838709676" fill="#c5b7c0" r="3.3125"><title>2025-07-01: 7 km</title></circle><circle cx="138.41666666666666" cy="26.25806451612903" fill="#555555" r="3.3125"><title>2025-07-02</title></circle><circle cx="138.41666666666666" cy="35.096774193548384" fill="#cdbec7" r="3.3125"><title>2025-07-03: 7 km</title></circle><circle cx="138.41666666666666" cy="43.935483870967744" fill="#555555" r="3.3125"><title>2025-07-04</title></circle><circle cx="138.41666666666666" cy="52.774193548387096" fill="#cdbec7" r="3.3125"><title>2025-07-05: 7 km</title></circle><circle cx="138.41666666666666" cy="61.61290322580645" fill="#E18ABF" r="3.3125"><title>2025-07-06: 10 km</title></circle><circle cx="138.41666666666666" cy="70.45161290322581" fill="#555555" r="3.3125"><title>2025-07-07</title></circle><circle cx="138.41666666666666" cy="79.29032258064517" fill="#e5d3de" r="3.3125"><title>2025-07-08: 9 km</title></circle><circle cx="138.41666666666666" cy="88.12903225806451" fill="#bcafb7" r="3.3125"><title>2025-07-09: 6 km</title></circle><circle cx="138.41666666666666" cy="96.96774193548387" fill="#555555" r="3.3125"><title>2025-07-10</title></circle><circle cx="138.41666666666666" cy="105.80645161290322" fill="#d5c5cf" r="3.3125"><title>2025-07-11: 8 km</title></circle><circle cx="138.41666666666666" cy="114.64516129032258" fill="#555555" r="3.3125"><title>2025-07-12</title></circle><circle cx="138.41666666666666" cy="123.48387096774194" fill="#E18ABF" r="3.3125"><title>2025-07-13: 10 km</title></circle><circle cx="138.41666666666666" cy="132.32258064516128" fill="#555555" r="3.3125"><title>2025-07-14</title></circle><circle cx="138.41666666666666" cy="141.16129032258064" fill="#cebec8" r="3.3125"><title>2025-07-15: 7 km</title></circle><circle cx="138.41666666666666" cy="149.99999999999997" fill="#555555" r="3.3125"><title>2025-07-16</title></circle><circle cx="138.41666666666666" cy="158.83870967741933" fill="#cdbec8" r="3.3125"><title>2025-07-17: 7 km</title></circle><circle cx="138.41666666666666" cy="167.6774193548387" fill="#555555" r="3.3125"><title>2025-07-18</title></circle><circle cx="138.41666666666666" cy="176.51612903225805" fill="#cdbec7" r="3.3125"><title>2025-07-19: 7 km</title></circle><circle cx="138.41666666666666" cy="185.35483870967738" fill="#cdbec8" r="3.3125"><title>2025-07-20: 7 km</title></circle><circle cx="138.41666666666666" cy="194.19354838709674" fill="#555555" r="3.3125"><title>2025-07-21</title></circle><circle cx="138.41666666666666" cy="203.0322580645161" fill="#c8b9c3" r="3.3125"><title>2025-07-22: 7 km</title></circle><circle cx="138.41666666666666" cy="211.87096774193546" fill="#cdbec7" r="3.3125"><title>2025-07-23: 7 km</title></circle><circle cx="138.41666666666666" cy="220.70967741935482" fill="#555555" r="3.3125"><title>2025-07-24</title></circle><circle cx="138.41666666666666" cy="229.54838709677418" fill="#555555" r="3.3125"><title>2025-07-25</title></circle><circle cx="138.41666666666666" cy="238.3870967741935" fill="#555555" r="3.3125"><title>2025-07-26</title></circle><circle cx="138.41666666666666" cy="247.22580645161287" fill="#c5b7c0" r="3.3125"><title>2025-07-27: 7 km</title></circle><circle cx="138.41666666666666" cy="256.06451612903226" fill="#555555" r="3.3125"><title>2025-07-28</title></circle><circle cx="138.41666666666666" cy="264.90322580645164" fill="#c8bac3" r="3.3125"><title>2025-07-29: 7 km</title></circle><circle cx="138.41666666666666" cy="273.741935483871" fill="#cdbec7" r="3.3125"><title>2025-07-30: 7 km</title></circle><circle cx="138.41666666666666" cy="282.5806451612903" fill="#555555" r="3.3125"><title>2025-07-31</title></circle><circle cx="147.25" cy="17.419354838709676" fill="#cdbec8" r="3.3125"><title>2025-08-01: 7 km</title></circle><circle cx="147.25" cy="26.25806451612903" fill="#555555" r="3.3125"><title>2025-08-02</title></circle><circle cx="147.25" cy="35.096774193548384" fill="#E18ABF" r="3.3125"><title>2025-08-03: 10 km</title></circle><circle cx="147.25" cy="43.935483870967744" fill="#aa9fa6" r="3.3125"><title>2025-08-04: 5 km</title></circle><circle cx="147.25" cy="52.774193548387096" fill="#555555" r="3.3125"><title>2025-08-05</title></circle><circle cx="147.25" cy="61.61290322580645" fill="#d5c5cf" r="3.3125"><title>2025-08-06: 8 km</title></circle><circle cx="147.25" cy="70.45161290322581" fill="#555555" r="3.3125"><title>2025-08-07</title></circle><circle cx="147.25" cy="79.29032258064517" fill="#d5c5d0" r="3.3125"><title>2025-08-08: 8 km</title></circle><circle cx="147.25" cy="88.12903225806451" fill="#bbafb7" r="3.3125"><title>2025-08-09: 6 km</title></circle><circle cx="147.25" cy="96.96774193548387" fill="#E18ABF" r="3.3125"><title>2025-08-10: 12 km</title></circle><circle cx="147.25" cy="105.80645161290322" fill="#555555" r="3.3125"><title>2025-08-11</title></circle><circle cx="147.25" cy="114.64516129032258" fill="#555555" r="3.3125"><title>2025-08-12</title></circle><circle cx="147.25" cy="123.48387096774194" fill="#a69ca3" r="3.3125"><title>2025-08-13: 5 km</title></circle><circle cx="147.25" cy="132.32258064516128" fill="#a59ba2" r="3.3125"><title>2025-08-14: 5 km</title></circle><circle cx="147.25" cy="141.16129032258064" fill="#555555" r="3.3125"><title>2025-08-15</title></circle><circle cx="147.25" cy="149.99999999999997" fill="#ddccd7" r="3.3125"><title>2025-08-16: 8 km</title></circle><circle cx="147.25" cy="158.83870967741933" fill="#E18ABF" r="3.3125"><title>2025-08-17: 12 km</title></circle><circle cx="147.25" cy="167.6774193548387" fill="#bcafb7" r="3.3125"><title>2025-08-18: 6 km</title></circle><circle cx="147.25" cy="176.51612903225805" fill="#555555" r="3.3125"><title>2025-08-19</title></circle><circle cx="147.25" cy="185.35483870967738" fill="#E18ABF" r="3.3125"><title>2025-08-20: 10 km</title></circle><circle cx="147.25" cy="194.19354838709674" fill="#c5b7c0" r="3.3125"><title>2025-08-21: 7 km</title></circle><circle cx="147.25" cy="203.0322580645161" fill="#958d92" r="3.3125"><title>2025-08-22: 4 km</title></circle><circle cx="147.25" cy="211.87096774193546" fill="#c5b7c0" r="3.3125"><title>2025-08-23: 7 km</title></circle><circle cx="147.25" cy="220.70967741935482" fill="#baadb6" r="3.3125"><title>2025-08-24: 6 km</title></circle><circle cx="147.25" cy="229.54838709677418" fill="#c9bbc4" r="3.3125"><title>2025-08-25: 7 km</title></circle><circle cx="147.25" cy="238.3870967741935" fill="#555555" r="3.3125"><title>2025-08-26</title></circle><circle cx="147.25" cy="247.22580645161287" fill="#d4c4ce" r="3.3125"><title>2025-08-27: 7 km</title></circle><circle cx="147.25" cy="256.06451612903226" fill="#E18ABF" r="3.3125"><title>2025-08-28: 11 km</title></circle><circle cx="147.25" cy="264.90322580645164" fill="#c2b4bd" r="3.3125"><title>2025-08-29: 6 km</title></circle><circle cx="147.25" cy="273.741935483871" fill="#aa9fa6" r="3.3125"><title>2025-08-30: 5 km</title></circle><circle cx="147.25" cy="282.5806451612903" fill="#E18ABF" r="3.3125"><title>2025-08-31: 13 km</title></circle><circle cx="156.08333333333334" cy="17.419354838709676" fill="#beb1ba" r="3.3125"><title>2025-09-01: 6 km</title></circle><circle cx="156.08333333333334" cy="26.25806451612903" fill="#e7d4e0" r="3.3125"><title>2025-09-02: 9 km</title></circle><circle cx="156.08333333333334" cy="35.096774193548384" fill="#958d92" r="3.3125"><title>2025-09-03: 4 km</title></circle><circle cx="156.08333333333334" cy="43.935483870967744" fill="#a69ca2" r="3.3125"><title>2025-09-04: 5 km</title></circle><circle cx="156.08333333333334" cy="52.774193548387096" fill="#a0969c" r="3.3125"><title>2025-09-05: 4 km</title></circle><circle cx="156.08333333333334" cy="61.61290322580645" fill="#e5d3df" r="3.3125"><title>2025-09-06: 9 km</title></circle><circle cx="156.08333333333334" cy="70.45161290322581" fill="#d5c5d0" r="3.3125"><title>2025-09-07: 8 km</title></circle><circle cx="156.08333333333334" cy="79.29032258064517" fill="#555555" r="3.3125"><title>2025-09-08</title></circle><circle cx="156.08333333333334" cy="88.12903225806451" fill="#c5b7c0" r="3.3125"><title>2025-09-09: 7 km</title></circle><circle cx="156.08333333333334" cy="96.96774193548387" fill="#baaeb6" r="3.3125"><title>2025-09-10: 6 km</title></circle><circle cx="156.08333333333334" cy="105.80645161290322" fill="#E18ABF" r="3.3125"><title>2025-09-11: 12 km</title></circle><circle cx="156.08333333333334" cy="114.64516129032258" fill="#999196" r="3.3125"><title>2025-09-12: 4 km</title></circle><circle cx="156.08333333333334" cy="123.48387096774194" fill="#eedbe8" r="3.3125"><title>2025-09-13: 9 km</title></circle><circle cx="156.08333333333334" cy="132.32258064516128" fill="#dccbd6" r="3.3125"><title>2025-09-14: 8 km</title></circle><circle cx="156.08333333333334" cy="141.16129032258064" fill="#c3b5be" r="3.3125"><title>2025-09-15: 6 km</title></circle><circle cx="156.08333333333334" cy="149.99999999999997" fill="#b5a9b1" r="3.3125"><title>2025-09-16: 6 km</title></circle><circle cx="156.08333333333334" cy="158.83870967741933" fill="#555555" r="3.3125"><title>2025-09-17</title></circle><circle cx="156.08333333333334" cy="167.6774193548387" fill="#E18ABF" r="3.3125"><title>2025-09-18: 10 km</title></circle><circle cx="156.08333333333334" cy="176.51612903225805" fill="#918a8f" r="3.3125"><title>2025-09-19: 3 km</title></circle><circle cx="156.08333333333334" cy="185.35483870967738" fill="#E18ABF" r="3.3125"><title>2025-09-20: 10 km</title></circle><circle cx="156.08333333333334" cy="194.19354838709674" fill="#E18ABF" r="3.3125"><title>2025-09-21: 10 km</title></circle><circle cx="156.08333333333334" cy="203.0322580645161" fill="#b6aab2" r="3.3125"><title>2025-09-22: 6 km</title></circle><circle cx="156.08333333333334" cy="211.87096774193546" fill="#e1cfdb" r="3.3125"><title>2025-09-23: 8 km</title></circle><circle cx="156.08333333333334" cy="220.70967741935482" fill="#ddccd7" r="3.3125"><title>2025-09-24: 8 km</title></circle><circle cx="156.08333333333334" cy="229.54838709677418" fill="#555555" r="3.3125"><title>2025-09-25</title></circle><circle cx="156.08333333333334" cy="238.3870967741935" fill="#555555" r="3.3125"><title>2025-09-26</title></circle><circle cx="156.08333333333334" cy="247.22580645161287" fill="#555555" r="3.3125"><title>2025-09-27</title></circle><circle cx="156.08333333333334" cy="256.06451612903226" fill="#e5d3df" r="3.3125"><title>2025-09-28: 9 km</title></circle><circle cx="156.08333333333334" cy="264.90322580645164" fill="#878185" r="3.3125"><title>2025-09-29: 3 km</title></circle><circle cx="156.08333333333334" cy="273.741935483871" fill="#e6d4e0" r="3.3125"><title>2025-09-30: 9 km</title></circle><circle cx="164.91666666666666" cy="17.419354838709676" fill="#e8d6e2" r="3.3125"><title>2025-10-01: 9 km</title></circle><circle cx="164.91666666666666" cy="26.25806451612903" fill="#dacad4" r="3.3125"><title>2025-10-02: 8 km</title></circle><circle cx="164.91666666666666" cy="35.096774193548384" fill="#E18ABF" r="3.3125"><title>2025-10-03: 11 km</title></circle><circle cx="164.91666666666666" cy="43.935483870967744" fill="#bfb2ba" r="3.3125"><title>2025-10-04: 6 km</title></circle><circle cx="164.91666666666666" cy="52.774193548387096" fill="#eddae6" r="3.3125"><title>2025-10-05: 9 km</title></circle><circle cx="164.91666666666666" cy="61.61290322580645" fill="#E18ABF" r="3.3125"><title>2025-10-06: 12 km</title></circle><circle cx="164.91666666666666" cy="70.45161290322581" fill="#E18ABF" r="3.3125"><title>2025-10-07: 10 km</title></circle><circle cx="164.91666666666666" cy="79.29032258064517" fill="#f0dde9" r="3.3125"><title>2025-10-08: 9 km</title></circle><circle cx="164.91666666666666" cy="88.12903225806451" fill="#E18ABF" r="3.3125"><title>2025-10-09: 10 km</title></circle><circle cx="164.91666666666666" cy="96.96774193548387" fill="#8d868a" r="3.3125"><title>2025-10-10: 3 km</title></circle><circle cx="164.91666666666666" cy="105.80645161290322" fill="#d7c7d1" r="3.3125"><title>2025-10-11: 8 km</title></circle><circle cx="164.91666666666666" cy="114.64516129032258" fill="#b4a8b0" r="3.3125"><title>2025-10-12: 5 km</title></circle><circle cx="164.91666666666666" cy="123.48387096774194" fill="#555555" r="3.3125"><title>2025-10-13</title></circle><circle cx="164.91666666666666" cy="132.32258064516128" fill="#d5c5cf" r="3.3125"><title>2025-10-14: 8 km</title></circle><circle cx="164.91666666666666" cy="141.16129032258064" fill="#555555" r="3.3125"><title>2025-10-15</title></circle><circle cx="164.91666666666666" cy="149.99999999999997" fill="#555555" r="3.3125"><title>2025-10-16</title></circle><circle cx="164.91666666666666" cy="158.83870967741933" fill="#d5c5d0" r="3.3125"><title>2025-10-17: 8 km</title></circle><circle cx="164.91666666666666" cy="167.6774193548387" fill="#b3a7af" r="3.3125"><title>2025-10-18: 5 km</title></circle><circle cx="164.91666666666666" cy="176.51612903225805" fill="#E18ABF" r="3.3125"><title>2025-10-19: 10 km</title></circle><circle cx="164.91666666666666" cy="185.35483870967738" fill="#ada2a9" r="3.3125"><title>2025-10-20: 5 km</title></circle><circle cx="164.91666666666666" cy="194.19354838709674" fill="#E18ABF" r="3.3125"><title>2025-10-21: 10 km</title></circle><circle cx="164.91666666666666" cy="203.0322580645161" fill="#bdb0b8" r="3.3125"><title>2025-10-22: 6 km</title></circle><circle cx="164.91666666666666" cy="211.87096774193546" fill="#555555" r="3.3125"><title>2025-10-23</title></circle><circle cx="164.91666666666666" cy="220.70967741935482" fill="#f2deeb" r="3.3125"><title>2025-10-24: 9 km</title></circle><circle cx="164.91666666666666" cy="229.54838709677418" fill="#555555" r="3.3125"><title>2025-10-25</title></circle><circle cx="164.91666666666666" cy="238.3870967741935" fill="#555555" r="3.3125"><title>2025-10-26</title></circle><circle cx="164.91666666666666" cy="247.22580645161287" fill="#dac9d4" r="3.3125"><title>2025-10-27: 8 km</title></circle><circle cx="164.91666666666666" cy="256.06451612903226" fill="#d1c2cc" r="3.3125"><title>2025-10-28: 7 km</title></circle><circle cx="164.91666666666666" cy="264.90322580645164" fill="#555555" r="3.3125"><title>2025-10-29</title></circle><circle cx="164.91666666666666" cy="273.741935483871" fill="#E18ABF" r="3.3125"><title>2025-10-30: 11 km</title></circle><circle cx="164.91666666666666" cy="282.5806451612903" fill="#555555" r="3.3125"><title>2025-10-31</title></circle><circle cx="173.75" cy="17.419354838709676" fill="#e5d3df" r="3.3125"><title>2025-11-01: 9 km</title></circle><circle cx="173.75" cy="26.25806451612903" fill="#E18ABF" r="3.3125"><title>2025-11-02: 11 km</title></circle><circle cx="173.75" cy="35.096774193548384" fill="#555555" r="3.3125"><title>2025-11-03</title></circle><circle cx="173.75" cy="43.935483870967744" fill="#cdbec7" r="3.3125"><title>2025-11-04: 7 km</title></circle><circle cx="173.75" cy="52.774193548387096" fill="#efdce8" r="3.3125"><title>2025-11-05: 9 km</title></circle><circle cx="173.75" cy="61.61290322580645" fill="#555555" r="3.3125"><title>2025-11-06</title></circle><circle cx="173.75" cy="70.45161290322581" fill="#e6d4e0" r="3.3125"><title>2025-11-07: 9 km</title></circle><circle cx="173.75" cy="79.29032258064517" fill="#E18ABF" r="3.3125"><title>2025-11-08: 10 km</title></circle><circle cx="173.75" cy="88.12903225806451" fill="#E18ABF" r="3.3125"><title>2025-11-09: 10 km</title></circle><circle cx="173.75" cy="96.96774193548387" fill="#555555" r="3.3125"><title>2025-11-10</title></circle><circle cx="173.75" cy="105.80645161290322" fill="#f1ddea" r="3.3125"><title>2025-11-11: 9 km</title></circle><circle cx="173.75" cy="114.64516129032258" fill="#E18ABF" r="3.3125"><title>2025-11-12: 10 km</title></circle><circle cx="173.75" cy="123.48387096774194" fill="#555555" r="3.3125"><title>2025-11-13</title></circle><circle cx="173.75" cy="132.32258064516128" fill="#E18ABF" r="3.3125"><title>2025-11-14: 10 km</title></circle><circle cx="173.75" cy="141.16129032258064" fill="#e5d3df" r="3.3125"><title>2025-11-15: 9 km</title></circle><circle cx="173.75" cy="149.99999999999997" fill="#E18ABF" r="3.3125"><title>2025-11-16: 12 km</title></circle><circle cx="173.75" cy="158.83870967741933" fill="#555555" r="3.3125"><title>2025-11-17</title></circle><circle cx="173.75" cy="167.6774193548387" fill="#E18ABF" r="3.3125"><title>2025-11-18: 14 km</title></circle><circle cx="173.75" cy="176.51612903225805" fill="#E18ABF" r="3.3125"><title>2025-11-19: 10 km</title></circle><circle cx="173.75" cy="185.35483870967738" fill="#555555" r="3.3125"><title>2025-11-20</title></circle><circle cx="173.75" cy="194.19354838709674" fill="#E18ABF" r="3.3125"><title>2025-11-21: 13 km</title></circle><circle cx="173.75" cy="203.0322580645161" fill="#c9bac4" r="3.3125"><title>2025-11-22: 7 km</title></circle><circle cx="173.75" cy="211.87096774193546" fill="#E18ABF" r="3.3125"><title>2025-11-23: 11 km</title></circle><circle cx="173.75" cy="220.70967741935482" fill="#555555" r="3.3125"><title>2025-11-24</title></circle><circle cx="173.75" cy="229.54838709677418" fill="#555555" r="3.3125"><title>2025-11-25</title></circle><circle cx="173.75" cy="238.3870967741935" fill="#e5d3df" r="3.3125"><title>2025-11-26: 9 km</title></circle><circle cx="173.75" cy="247.22580645161287" fill="#E18ABF" r="3.3125"><title>2025-11-27: 10 km</title></circle><circle cx="173.75" cy="256.06451612903226" fill="#555555" r="3.3125"><title>2025-11-28</title></circle><circle cx="173.75" cy="264.90322580645164" fill="#E18ABF" r="3.3125"><title>2025-11-29: 11 km</title></circle><circle cx="173.75" cy="273.741935483871" fill="#555555" r="3.3125"><title>2025-11-30</title></circle><circle cx="182.58333333333334" cy="17.419354838709676" fill="#555555" r="3.3125"><title>2025-12-01</title></circle><circle cx="182.58333333333334" cy="26.25806451612903" fill="#e8d6e2" r="3.3125"><title>2025-12-02: 9 km</title></circle><circle cx="182.58333333333334" cy="35.096774193548384" fill="#b9acb4" r="3.3125"><title>2025-12-03: 6 km</title></circle><circle cx="182.58333333333334" cy="43.935483870967744" fill="#555555" r="3.3125"><title>2025-12-04</title></circle><circle cx="182.58333333333334" cy="52.774193548387096" fill="#e7d5e1" r="3.3125"><title>2025-12-05: 9 km</title></circle><circle cx="182.58333333333334" cy="61.61290322580645" fill="#efdce8" r="3.3125"><title>2025-12-06: 9 km</title></circle><circle cx="182.58333333333334" cy="70.45161290322581" fill="#E18ABF" r="3.3125"><title>2025-12-07: 10 km</title></circle><circle cx="182.58333333333334" cy="79.29032258064517" fill="#555555" r="3.3125"><title>2025-12-08</title></circle><circle cx="182.58333333333334" cy="88.12903225806451" fill="#555555" r="3.3125"><title>2025-12-09</title></circle><circle cx="182.58333333333334" cy="96.96774193548387" fill="#555555" r="3.3125"><title>2025-12-10</title></circle><circle cx="182.58333333333334" cy="105.80645161290322" fill="#E18ABF" r="3.3125"><title>2025-12-11: 11 km</title></circle><circle cx="182.58333333333334" cy="114.64516129032258" fill="#E18ABF" r="3.3125"><title>2025-12-12: 10 km</title></circle><circle cx="182.58333333333334" cy="123.48387096774194" fill="#555555" r="3.3125"><title>2025-12-13</title></circle><circle cx="182.58333333333334" cy="132.32258064516128" fill="#555555" r="3.3125"><title>2025-12-14</title></circle><circle cx="182.58333333333334" cy="141.16129032258064" fill="#555555" r="3.3125"><title>2025-12-15</title></circle><circle cx="182.58333333333334" cy="149.99999999999997" fill="#555555" r="3.3125"><title>2025-12-16</title></circle><circle cx="182.58333333333334" cy="158.83870967741933" fill="#555555" r="3.3125"><title>2025-12-17</title></circle><circle cx="182.58333333333334" cy="167.6774193548387" fill="#555555" r="3.3125"><title>2025-12-18</title></circle><circle cx="182.58333333333334" cy="176.51612903225805" fill="#555555" r="3.3125"><title>2025-12-19</title></circle><circle cx="182.58333333333334" cy="185.35483870967738" fill="#555555" r="3.3125"><title>2025-12-20</title></circle><circle cx="182.58333333333334" cy="194.19354838709674" fill="#555555" r="3.3125"><title>2025-12-21</title></circle><circle cx="182.58333333333334" cy="203.0322580645161" fill="#555555" r="3.3125"><title>2025-12-22</title></circle><circle cx="182.58333333333334" cy="211.87096774193546" fill="#b7aab2" r="3.3125"><title>2025-12-23: 6 km</title></circle><circle cx="182.58333333333334" cy="220.70967741935482" fill="#555555" r="3.3125"><title>2025-12-24</title></circle><circle cx="182.58333333333334" cy="229.54838709677418" fill="#555555" r="3.3125"><title>2025-12-25</title></circle><circle cx="182.58333333333334" cy="238.3870967741935" fill="#555555" r="3.3125"><title>2025-12-26</title></circle><circle cx="182.58333333333334" cy="247.22580645161287" fill="#555555" r="3.3125"><title>2025-12-27</title></circle><circle cx="182.58333333333334" cy="256.06451612903226" fill="#555555" r="3.3125"><title>2025-12-28</title></circle><circle cx="182.58333333333334" cy="264.90322580645164" fill="#555555" r="3.3125"><title>2025-12-29</title></circle><circle cx="182.58333333333334" cy="273.741935483871" fill="#555555" r="3.3125"><title>2025-12-30</title></circle><circle cx="182.58333333333334" cy="282.5806451612903" fill="#555555" r="3.3125"><title>2025-12-31</title></circle></svg>