<?xml version="1.0" encoding="utf-8" ?>
<svg baseProfile="full" height="200mm" version="1.1" viewBox="0,0,200,200" width="200mm" xmlns="http://www.w3.org/2000/svg" xmlns:ev="http://www.w3.org/2001/xml-events" xmlns:xlink="http://www.w3.org/1999/xlink"><defs /><rect fill="#222222" height="200" width="200" x="0" y="0" /><rect fill="#222222" height="200" width="180" x="10" y="0" /><text alignment-baseline="middle" fill="#D7F2E5" style="dominant-baseline: central; font-size:9.0px; font-family:Arial;" text-anchor="middle" x="100.0" y="100.0">2026</text><line stroke="#D7F2E5" stroke-width="0.3" x1="100.0" x2="100.0" y1="15.0" y2="10.0" /><path d="M 100.0 14.0 a86.0,86.0 0 0,1 42.46469731375804,11.215312516191453" fill="none" id="id13" stroke="none" /><text fill="#D7F2E5" style="font-size:6.75px; font-family:Arial;" text-anchor="middle"><textPath startOffset="22.20632615414155" xlink:href="#id13">January</textPath></text><path d="M 105.36241919743992 79.69619591428918 l 3.087280210414416 -11.689412976119463 a33.09023055296658,33.09023055296658 0 0,0 0.5494587257092143,0.15018782565993863 l -3.288036825347341 11.634538609633232" fill="#7ecdad" stroke="none" /><path d="M 106.0581310904928 79.89281104454417 l 3.507376148570556 -11.641127255869673 a33.15802332761841,33.15802332761841 0 0,0 0.5450778411758619,0.16935833855631366 l -3.7072393624571363 11.57902878243084" fill="#7ecdad" stroke="none" /><path d="M 106.74666289553966 80.11325718540242 l 6.912240838938635 -20.37480721430584 a42.51538617909566,42.51538617909566 0 0,0 0.6910126860535678,0.24108075777432536 l -7.261935529055476 20.25280560335931" fill="#61c49f" stroke="none" /><path d="M 107.08798089147638 80.2323363322302 l 7.354132574415434 -20.509933861990678 a42.78854407585119,42.78854407585119 0 0,0 0.6911728764279925,0.2545648034362806 l -7.706087776616003 20.380305790748075" fill="#60c39f" stroke="none" /><path d="M 107.76421540070413 80.48803036053334 l 7.766518370766595 -19.517757150453953 a42.00622888068088,42.00622888068088 0 0,0 0.6695315421012393,0.27311872695894784 l -8.101333782456221 19.381177537311427" fill="#63c4a0" stroke="none" /><path d="M 108.76106565485865 80.91482961587045 l 8.272217181618426 -18.020259245307393 a40.828245519156496,40.828245519156496 0 0,0 0.6361853108703601,0.2986975337673253 l -8.581180703788386 17.875196728900065" fill="#66c5a2" stroke="none" /><path d="M 109.41281617654863 81.2277094730956 l 6.0740086389616375 -12.113596260128348 a34.551117861622195,34.551117861622195 0 0,0 0.5293552292410364,0.27115630868591 l -6.281624355791429 12.007247426129938" fill="#7accab" stroke="none" /><path d="M 110.36928655335952 81.73862282372117 l 9.978928478938114 -17.57391656901982 a41.209442277376965,41.209442277376965 0 0,0 0.6138308665545218,0.3555704579493065 l -10.279956077957964 17.399541953680462" fill="#65c5a1" stroke="none" /><line stroke="#D7F2E5" stroke-width="0.3" x1="143.23703022742887" x2="145.7803849466894" y1="26.81831364943548" y2="22.513508569990506" /><path d="M 143.74570117128098 25.957352633546492 a86.0,86.0 0 0,1 28.547481713284135,27.462654790039103" fill="none" id="id14" stroke="none" /><text fill="#D7F2E5" style="font-size:6.75px; font-family:Arial;" text-anchor="middle"><textPath startOffset="19.985693538727396" xlink:href="#id14">February</textPath></text><path d="M 110.68208982089419 81.91981866633111 l 7.163197642087988 -12.12421112997333 a35.08218363691456,35.08218363691456 0 0,0 0.5172749930432204,0.31165239547913914 l -7.370834701348847 11.999112125035577" fill="#78cbaa" stroke="none" /><path d="M 111.2981086023043 82.29822771554956 l 7.8925542937749045 -12.365981224730843 a35.67003425117271,35.67003425117271 0 0,0 0.5147236461671173,0.3347905774367917 l -8.104244965726302 12.228291723134523" fill="#76cba9" stroke="none" /><path d="M 111.60114157652 82.49532879139004 l 10.9844068704635 -16.574095697463044 a40.883607381070185,40.883607381070185 0 0,0 0.5832636593854611,0.39382222644993636 l -11.268075224255503 16.382561558714436" fill="#66c5a2" stroke="none" /><path d="M 111.90073688211348 82.69761687909136 l 9.827990555946881 -14.288834346320392 a38.34243885225969,38.34243885225969 0 0,0 0.5405715322177178,0.37870490396931566 l -10.072493227748248 14.11754459958714" fill="#6ec8a5" stroke="none" /><path d="M 112.19680574252982 82.90503203632743 l 10.196681358525987 -14.291605920389442 a38.55626129080511,38.55626129080511 0 0,0 0.5369504380182415,0.3901173286513567 l -10.441177112898018 14.113969356921409" fill="#6dc8a5" stroke="none" /><path d="M 113.34407831869373 83.78471172551755 l 14.097861625184628 -17.13126113670101 a43.186252737600725,43.186252737600725 0 0,0 0.5699402120573679,0.4773085369950061 l -14.390659374201112 16.886051442312183" fill="#5fc39e" stroke="none" /><path d="M 113.89432698308785 84.25364557470407 l 12.573006708853397 -14.248910369693258 a40.002945677563375,40.002945677563375 0 0,0 0.5123977548123348,0.46003576348950015 l -12.81641545126172 14.030375597434459" fill="#69c6a3" stroke="none" /><path d="M 114.42810811169701 84.74124197986012 l 13.150933250025508 -13.908054101595503 a40.14108184611136,40.14108184611136 0 0,0 0.4979725924017797,0.4790492393473442 l -13.388389086039707 13.679621775485856" fill="#69c6a3" stroke="none" /><path d="M 114.68862486808459 84.99185889309783 l 18.880113889467783 -19.290806042925787 a47.992478549867485,47.992478549867485 0 0,0 0.5854264221768448,0.5829124150721131 l -19.20937611181195 18.962957777203556" fill="#50be98" stroke="none" /><path d="M 115.19652480421416 85.50635884689758 l 16.311041150383616 -15.556607863502379 a43.540144445595104,43.540144445595104 0 0,0 0.5125974530036834,0.546803223040501 l -16.576405925357765 15.273535223583822" fill="#5ec39e" stroke="none" /><path d="M 115.9244219780498 86.31012108654704 l 20.381007560447873 -17.521108522575727 a47.87702946828219,47.87702946828219 0 0,0 0.5318668015578458,0.6295625336195076 l -20.679584975492833 17.167687039327113" fill="#51be98" stroke="none" /><path d="M 116.15771136456269 86.58626213691792 l 20.18134120737559 -16.754057215978683 a47.22946751508317,47.22946751508317 0 0,0 0.5139049783630841,0.6299867386645118 l -20.466744677815083 16.40418630770607" fill="#53bf99" stroke="none" /><path d="M 116.38621287248628 86.86637796730983 l 21.79758514549853 -17.47086082392154 a48.935026330828734,48.935026330828734 0 0,0 0.5211485216627033,0.6618056990506525 l -22.095087747755198 17.09306273091785" fill="#4dbd97" stroke="none" /><path d="M 116.82858285166822 87.43820079747576 l 17.583193957481907 -13.125083304981318 a42.94166177638165,42.94166177638165 0 0,0 0.43705898106701346,0.5961479589986444 l -17.806515551062546 12.820472902311181" fill="#60c39f" stroke="none" /><path d="M 117.04232023915458 87.72973835380427 l 21.8083819540563 -15.701767652602145 a47.87286793162039,47.87286793162039 0 0,0 0.4757363519583127,0.6728953317395362 l -22.075430925818495 15.324045820530817" fill="#51be98" stroke="none" /><path d="M 117.45458315368197 88.32363383020206 l 22.34211994405681 -14.945918282862138 a47.88030500036437,47.88030500036437 0 0,0 0.4523625529600507,0.6889792029690268 l -22.59607913237479 14.559121015915437" fill="#51be98" stroke="none" /><path d="M 117.65298651832404 88.62581576622439 l 20.36935490368542 -13.124396552231357 a45.23139294494882,45.23139294494882 0 0,0 0.4160693762056898,0.6581218338805795 l -20.592251876137066 12.77182707063657" fill="#59c19c" stroke="none" /><line stroke="#D7F2E5" stroke-width="0.3" x1="172.23445277983987" x2="176.4835382374775" y1="55.19839476539836" y2="52.563006222186495" /><path d="M 173.08426987136738 54.67131705675599 a86.0,86.0 0 0,1 12.851231095245387,41.99856678651699" fill="none" id="id15" stroke="none" /><text fill="#D7F2E5" style="font-size:6.75px; font-family:Arial;" text-anchor="middle"><textPath startOffset="22.20632615414155" xlink:href="#id15">March</textPath></text><path d="M 117.84615892207809 88.93136811851018 l 30.00060234978373 -18.60712016981452 a56.30242289650623,56.30242289650623 0 0,0 0.5037302752600714,0.8280001255697439 l -30.316448423330023 18.087952271037697" fill="#3fae8b" stroke="none" /><path d="M 118.21658344932153 89.55222093294921 l 26.228765826995616 -15.043015685362679 a51.23640980204893,51.23640980204893 0 0,0 0.4321970706686883,0.7688303628744848 l -26.48382053895674 14.589301812553401" fill="#46bb94" stroke="none" /><path d="M 118.3937258080291 89.86733742301442 l 17.918316512351456 -9.870770993445662 a41.457228224807366,41.457228224807366 0 0,0 0.33894620547862314,0.6280158417446455 l -18.085570817048545 9.560874168368558" fill="#65c5a1" stroke="none" /><path d="M 118.73160827565052 90.50648371742162 l 20.430919964410194 -10.35475803763829 a43.90509778652276,43.90509778652276 0 0,0 0.33585306379554125,0.6770592825800655 l -20.606133041159143 10.001539166559274" fill="#5dc29d" stroke="none" /><path d="M 118.89224826269711 90.83032412892265 l 19.411290358675952 -9.421601831259018 a42.57695007306661,42.57695007306661 0 0,0 0.31434320190655324,0.6620869507263787 l -19.570591754424264 9.0860724648921" fill="#61c49f" stroke="none" /><path d="M 119.04729006885535 91.15688171328212 l 35.385314665781664 -16.42840120936138 a60.01298322728127,60.01298322728127 0 0,0 0.4269428879177781,0.9407120601024489 l -35.66285987066279 15.816867140416868" fill="#3aa384" stroke="none" /><path d="M 119.34039704204932 91.81776055985345 l 25.19268932782371 -10.658137771076294 a48.354478542196446,48.354478542196446 0 0,0 0.31770806574999194,0.7693552815913297 l -25.3724190804599 10.222907919031663" fill="#4fbe98" stroke="none" /><path d="M 119.47837535516314 92.15188598940014 l 20.755611577300467 -8.362730620405792 a43.37701220845271,43.37701220845271 0 0,0 0.27308194289607973,0.6949637581991249 l -20.896487070078244 8.004217857310882" fill="#5fc39e" stroke="none" /><path d="M 119.7369772167798 92.82701384747503 l 25.280196127823782 -9.187551607640808 a47.89794454608567,47.89794454608567 0 0,0 0.27494998336062915,0.777320628123447 l -25.43459919199422 8.751033353090747" fill="#51be98" stroke="none" /><path d="M 119.85752413597 93.16781622104841 l 22.980751160525017 -7.906761902036699 a45.30291767828445,45.30291767828445 0 0,0 0.24735976862032452,0.7395742236291478 l -23.11344822291711 7.510014575485237" fill="#59c19c" stroke="none" /><path d="M 119.97218684219823 93.5106431181261 l 34.73445558527763 -11.285908757583785 a57.52196792740132,57.52196792740132 0 0,0 0.29786659880790556,0.9443185176093553 l -34.92357766785374 10.68634007354801" fill="#3daa88" stroke="none" /><path d="M 120.18372546131832 94.20196356495316 l 38.77809443954033 -11.139509644690586 a61.3463664223442,61.3463664223442 0 0,0 0.2828161832079223,1.017440285772459 l -38.96409739331462 10.470358055499174" fill="#399f81" stroke="none" /><path d="M 120.28053869075195 94.5502522615342 l 13.010573224231017 -3.496176461882122 a34.47212921091895,34.47212921091895 0 0,0 0.14905694193296803,0.574377201421068 l -13.068826498034287 3.2717028349122033" fill="#7accab" stroke="none" /><path d="M 120.45610955862082 95.25157060432595 l 26.485089011754084 -6.147922450750503 a48.18927896103497,48.18927896103497 0 0,0 0.1806079400265748,0.8096299814809416 l -26.586991338782695 5.691114299719597" fill="#50be98" stroke="none" /><path d="M 120.53481517161879 95.60439243477599 l 13.181654131718128 -2.821616758626955 a34.48026434387717,34.48026434387717 0 0,0 0.1192371939852089,0.58144290409941 l -13.228270621618334 2.5942981983641333" fill="#7accab" stroke="none" /><path d="M 120.6074358757038 95.95851677861258 l 39.53990486041174 -7.754475764595907 a61.293125601696836,61.293125601696836 0 0,0 0.19413656565233026,1.0370852965296922 l -39.66752714997393 7.072712390603652" fill="#39a081" stroke="none" /><path d="M 120.73433829027371 96.67025291283417 l 24.68414884243803 -3.9640509167264493 a46.00041807142502,46.00041807142502 0 0,0 0.11882150379538732,0.7828852499553622 l -24.748726239672717 3.538566554379005" fill="#57c09b" stroke="none" /><path d="M 120.78858239683441 97.02765380044208 l 17.85056119753085 -2.5522686791541975 a39.0320994473019,39.0320994473019 0 0,0 0.08937235745708076,0.6659278715560106 l -17.89184955404577 2.2446224655335225" fill="#6cc7a4" stroke="none" /><path d="M 120.87857604477298 97.74499172005257 l 22.56388943490112 -2.4370319793077435 a43.695114701155646,43.695114701155646 0 0,0 0.07432929003666597,0.7484858069848598 l -22.602495850620016 2.0482706416184486" fill="#5ec29e" stroke="none" /><path d="M 120.91429891909075 98.10471618934814 l 20.15007000848449 -1.826028288986635 a41.232639488188525,41.232639488188525 0 0,0 0.05797214116064048,0.7074069602087483 l -20.178516633464625 1.478907411570118" fill="#65c5a1" stroke="none" /><path d="M 120.94382443527127 98.46500227214037 l 49.13878030126352 -3.6014394766032263 a70.27058042888758,70.27058042888758 0 0,0 0.07803182882754021,1.2071178542571073 l -49.193492721095474 2.755062558093084" fill="#2e866f" stroke="none" /><path d="M 120.98425023603335 99.18683210126433 l 34.96803592556025 -1.3550583879177103 a55.99428124316798,55.99428124316798 0 0,0 0.029032516329150267,0.9634478755541441 l -34.98618013634505 0.7529403649385672" fill="#3faf8b" stroke="none" /><line stroke="#D7F2E5" stroke-width="0.3" x1="184.98032266829074" x2="189.97916517819016" y1="98.17113171792111" y2="98.06355123074" /><path d="M 185.9800911702706 98.14961562048488 a86.0,86.0 0 0,1 -9.607161424134198,41.387399972396054" fill="none" id="id16" stroke="none" /><text fill="#D7F2E5" style="font-size:6.75px; font-family:Arial;" text-anchor="middle"><textPath startOffset="21.466115282336823" xlink:href="#id16">April</textPath></text><path d="M 120.99513854157772 99.54816195383933 l 25.57611761343707 -0.5504256610617453 a46.58203980500228,46.58203980500228 0 0,0 0.0103522880101065,0.8017961150044094 l -25.581802908564892 0.1100932879968731" fill="#55c09a" stroke="none" /><path d="M 120.99824983174949 100.27111621757518 l 21.49101524722142 0.27747849522523077 a42.49280648662747,42.49280648662747 0 0,0 -0.015738399294814145,0.731301572377478 l -21.483054785241595 -0.6473698833928236" fill="#61c49f" stroke="none" /><path d="M 120.9904718944345 100.63252640178507 l 26.882332201055267 0.810071586014837 a47.89453477088536,47.89453477088536 0 0,0 -0.031924825470299165,0.8238378906153626 l -26.864405242733763 -1.2726867236442057" fill="#51be98" stroke="none" /><path d="M 120.9764740272857 100.99374915477107 l 35.191054077395705 1.6671572257294165 a56.23052228243985,56.23052228243985 0 0,0 -0.05412495461086687,0.9664374236649405 l -35.15714277189731 -2.2726663657297803" fill="#3fae8b" stroke="none" /><path d="M 120.92983693683757 101.71520430193887 l 36.008354413020015 2.9508918096847547 a57.12906516928057,57.12906516928057 0 0,0 -0.08875518168862152,0.979406034083934 l -35.95222463505432 -3.5702792323172594" fill="#3eac89" stroke="none" /><path d="M 120.89721153311464 102.0752229133903 l 22.190618287882664 2.2036662384518766 a43.299768718285065,43.299768718285065 0 0,0 -0.08003796986574166,0.7410521970899764 l -22.14939801651587 -2.5853147574266444" fill="#5fc39e" stroke="none" /><path d="M 120.81339534386255 102.79330883721812 l 23.973338600042755 3.2173961750487847 a45.18827405540789,45.18827405540789 0 0,0 -0.11010004404603986,0.7700394516246621 l -23.914404504980112 -3.629581098653856" fill="#59c19c" stroke="none" /><path d="M 120.76222939487914 103.15116336523771 l 23.98652627149922 3.640527296394417 a45.26122176579562,45.26122176579562 0 0,0 -0.12353780128952724,0.7692700065559263 l -23.920306715848405 -4.052876532643548" fill="#59c19c" stroke="none" /><path d="M 120.70491114924044 103.5080841355445 l 40.58844275476712 6.876999910220727 a62.16691405755578,62.16691405755578 0 0,0 -0.18784342217837216,1.0535256684696952 l -40.46405289024956 -7.5746443294236405" fill="#389d7f" stroke="none" /><path d="M 120.5718875245553 104.21870165774334 l 34.98846035222618 7.175125545171111 a56.716589764537574,56.716589764537574 0 0,0 -0.20435787070500702,0.9546919376955423 l -34.85976844279673 -7.776331302282823" fill="#3ead8a" stroke="none" /><path d="M 120.49622156327973 104.57218783832717 l 23.992195439541728 5.352051053154595 a45.581901726366496,45.581901726366496 0 0,0 -0.17742089766296926,0.7643245835957715 l -23.896513975948206 -5.764244294098931" fill="#58c19b" stroke="none" /><path d="M 120.32669344350535 105.2749913415812 l 23.584263826077006 6.120365214632225 a45.365474971329505,45.365474971329505 0 0,0 -0.2026582130823514,0.7541666015851841 l -23.475417536652877 -6.525422749392957" fill="#58c19b" stroke="none" /><path d="M 120.23288151984713 105.62410040840565 l 29.292684944737 8.142438890841605 a51.40330084649875,51.40330084649875 0 0,0 -0.2443060910875988,0.8504615530240469 l -29.148186216763303 -8.645457919370234" fill="#46bb94" stroke="none" /><path d="M 120.13307415673323 105.97154293290107 l 42.84241309858792 12.707215359942468 a65.68719819270409,65.68719819270409 0 0,0 -0.3308546170415066,1.0812520316116696 l -42.61733170904028 -13.442794364106195" fill="#349378" stroke="none" /><path d="M 119.9155931802556 106.66101706037122 l 28.112563844605805 9.40259552827897 a50.64329685756038,50.64329685756038 0 0,0 -0.28362457436728417,0.824345774831714 l -27.946548439295288 -9.885114006199984" fill="#48bc95" stroke="none" /><path d="M 119.79798401119884 107.00284435728193 l 25.329886447963943 8.959561351417372 a47.86776669313174,47.86776669313174 0 0,0 -0.28145275554589694,0.7744371041137167 l -25.17190943141282 -9.39424625253722" fill="#51be98" stroke="none" /><path d="M 119.54520255179757 107.68017299344265 l 24.11942610559856 9.477587377395434 a46.914694251709676,46.914694251709676 0 0,0 -0.3018120260152245,0.7490726971456846 l -23.952711465325944 -9.891359442383932" fill="#54bf99" stroke="none" /><path d="M 119.41010516605496 108.01547362559984 l 24.852313878601258 10.262853535560955 a47.88798370672097,47.88798370672097 0 0,0 -0.32118931037001647,0.7591966519262435 l -24.67197358703893 -10.689124713153362" fill="#51be98" stroke="none" /><path d="M 119.26925614724726 108.34839909993367 l 41.96612377320507 18.181809783351696 a66.73547585349857,66.73547585349857 0 0,0 -0.4657466167157658,1.0501356671781275 l -41.64693607175803 -18.901493787022513" fill="#329076" stroke="none" /><path d="M 118.97047184881838 109.00673069616215 l 37.469618437508 17.789687322701326 a62.47825069710534,62.47825069710534 0 0,0 -0.4696184954736921,0.9675531970794707 l -37.15784668541959 -18.432029475746074" fill="#379c7f" stroke="none" /><path d="M 118.81262510543309 109.33194174019688 l 17.843399568206657 8.85116055225432 a40.91808101380403,40.91808101380403 0 0,0 -0.3184232013842411,0.6282791851480504 l -17.688397697036148 -9.156993949105066" fill="#66c5a2" stroke="none" /><line stroke="#D7F2E5" stroke-width="0.3" x1="174.80103733775053" x2="179.2010983576182" y1="140.37084112569926" y2="142.7455964860345" /><path d="M 175.68104954172406 140.8457921977663 a86.0,86.0 0 0,1 -30.038265399797805,32.042727171017184" fill="none" id="id17" stroke="none" /><text fill="#D7F2E5" style="font-size:6.75px; font-family:Arial;" text-anchor="middle"><textPath startOffset="22.206326154141568" xlink:href="#id17">May</textPath></text><path d="M 118.48025628344425 109.97397251340804 l 19.880068424607845 10.729464623785775 a43.59067355525639,43.59067355525639 0 0,0 -0.3620591331397595,0.6572424938329209 l -19.692432882016575 -11.070077636016501" fill="#5ec39e" stroke="none" /><path d="M 118.30583269289576 110.29060199501025 l 26.01177793593601 14.622489914112904 a50.840070420104254,50.840070420104254 0 0,0 -0.4354040562156288,0.759163672329067 l -25.756221883568 -15.068073432300288" fill="#47bc94" stroke="none" /><path d="M 118.12598468904814 110.60418214915192 l 33.89726431243926 19.830799335510708 a60.27193820213945,60.27193820213945 0 0,0 -0.531595981608135,0.8909854425189667 l -33.550887455132894 -20.41134687191578" fill="#3aa283" stroke="none" /><path d="M 117.55443506779139 111.5257021239791 l 24.767579892217498 16.261631152877026 a50.62893284392128,50.62893284392128 0 0,0 -0.48458372752368223,0.7243869234643601 l -24.483993059283094 -16.685554990547192" fill="#48bc95" stroke="none" /><path d="M 117.35343817320211 111.8261652097733 l 22.51725098595353 15.345243263726106 a48.248909754104965,48.248909754104965 0 0,0 -0.47361840414891215,0.6822826353062577 l -22.249771674642485 -15.730567161219383" fill="#50be98" stroke="none" /><path d="M 117.14729908036423 112.12312394758627 l 22.317096970617612 15.778166080681228 a48.33136187725576,48.33136187725576 0 0,0 -0.4861219185944684,0.6751808275031985 l -22.042195259647542 -16.159980513635556" fill="#4fbe98" stroke="none" /><path d="M 116.93607887273984 112.41649034213515 l 21.721797645493037 15.92508470855072 a47.93408279348422,47.93408279348422 0 0,0 -0.4935812069236006,0.661232686562216 l -21.444455171874345 -16.296630274622252" fill="#51be98" stroke="none" /><path d="M 116.71984013943494 112.70617746262583 l 21.396593380825433 16.26025789272894 a47.873968725189,47.873968725189 0 0,0 -0.5042569292727241,0.6518200556031165 l -21.11352963433464 -16.626155942445312" fill="#51be98" stroke="none" /><path d="M 116.27256486870786 113.27417163493432 l 20.830367646059774 16.99215075088139 a47.88191591778184,47.88191591778184 0 0,0 -0.5264821865798498,0.6341817095407611 l -20.534789459586378 -17.34819371753592" fill="#51be98" stroke="none" /><path d="M 116.0416608686014 113.55231037782055 l 16.956337210256383 14.325046927913107 a43.197394916404896,43.197394916404896 0 0,0 -0.4847518894799989,0.5638759620547606 l -16.707242811205603 -14.614799989129395" fill="#5fc39e" stroke="none" /><path d="M 115.56566222782051 114.09645910891815 l 9.960504997451926 9.020358359685142 a34.43795091304498,34.43795091304498 0 0,0 -0.4016999894008273,0.435966001783154 l -9.803758600055376 -9.19047561626963" fill="#7accab" stroke="none" /><path d="M 115.32070863581623 114.36230785411682 l 45.96212590744871 43.08692356235047 a84.0,84.0 0 0,0 -0.997973794484142,1.0463715336699715 l -45.21364556158561 -43.87170221260295" fill="#1f5d50" stroke="none" /><path d="M 115.07121518719521 114.62390073753431 l 4.674995328528293 4.53624122432543 a27.514066761020402,27.514066761020402 0 0,0 -0.3327359617528098,0.3370597725487201 l -4.596218741719947 -4.616041490854815" fill="#8fd3b6" stroke="none" /><line stroke="#D7F2E5" stroke-width="0.3" x1="143.8653032363475" x2="146.44561519142675" y1="172.8068346515853" y2="177.08958963109032" /><path d="M 144.38136562736335 173.6633856474863 a86.0,86.0 0 0,1 -40.68145358897372,12.25698825130547" fill="none" id="id18" stroke="none" /><text fill="#D7F2E5" style="font-size:6.75px; font-family:Arial;" text-anchor="middle"><textPath startOffset="21.466115282336833" xlink:href="#id18">June</textPath></text><line stroke="#D7F2E5" stroke-width="0.3" x1="102.19456741930631" x2="102.32365962044197" y1="184.97166512339345" y2="189.96999836594603" /><path d="M 102.22038585953345 185.97133177190398 a86.0,86.0 0 0,1 -42.740103519485714,-10.115201625700543" fill="none" id="id19" stroke="none" /><text fill="#D7F2E5" style="font-size:6.75px; font-family:Arial;" text-anchor="middle"><textPath startOffset="22.20632615414155" xlink:href="#id19">July</textPath></text><line stroke="#D7F2E5" stroke-width="0.3" x1="58.666819895761336" x2="56.23545636021788" y1="174.27360380694188" y2="178.64263932499728" /><path d="M 58.180547188652646 175.14741091055294 a86.0,86.0 0 0,1 -31.652253787137756,-30.449443065178592" fill="none" id="id20" stroke="none" /><text fill="#D7F2E5" style="font-size:6.75px; font-family:Arial;" text-anchor="middle"><textPath startOffset="22.20632615414155" xlink:href="#id20">August</textPath></text><line stroke="#D7F2E5" stroke-width="0.3" x1="26.63291911575756" x2="22.317208475507996" y1="142.92168965132927" y2="145.44649492493687" /><path d="M 25.769776987707644 143.4266507060508 a86.0,86.0 0 0,1 -11.730757126820373,-40.83630448921669" fill="none" id="id21" stroke="none" /><text fill="#D7F2E5" style="font-size:6.75px; font-family:Arial;" text-anchor="middle"><textPath startOffset="21.46611528233685" xlink:href="#id21">September</textPath></text><line stroke="#D7F2E5" stroke-width="0.3" x1="15.007084014347285" x2="10.007500721073583" y1="101.09737516637583" y2="101.16192664675087" /><path d="M 14.007167355692545 101.11028546245083 a86.0,86.0 0 0,1 10.666146001902534,-42.60595125391555" fill="none" id="id22" stroke="none" /><text fill="#D7F2E5" style="font-size:6.75px; font-family:Arial;" text-anchor="middle"><textPath startOffset="22.20632615414155" xlink:href="#id22">October</textPath></text><line stroke="#D7F2E5" stroke-width="0.3" x1="26.266209847984243" x2="21.928928074336255" y1="57.711370442889674" y2="55.22380399835377" /><path d="M 25.398753493254645 57.213857153982495 a86.0,86.0 0 0,1 29.58750427330803,-30.492523968695096" fill="none" id="id23" stroke="none" /><text fill="#D7F2E5" style="font-size:6.75px; font-family:Arial;" text-anchor="middle"><textPath startOffset="21.46611528233685" xlink:href="#id23">November</textPath></text><line stroke="#D7F2E5" stroke-width="0.3" x1="56.762969772571076" x2="54.21961505331055" y1="26.818313649435495" y2="22.513508569990535" /><path d="M 56.25429882871897 25.957352633546506 a86.0,86.0 0 0,1 42.265352541879196,-11.944610805530505" fill="none" id="id24" stroke="none" /><text fill="#D7F2E5" style="font-size:6.75px; font-family:Arial;" text-anchor="middle"><textPath startOffset="22.20632615414155" xlink:href="#id24">December</textPath></text></svg>